<?xml version="1.0" encoding="UTF-8"?>
<svg version="1.1" xmlns="http://www.w3.org/2000/svg" width="526" height="475">
<path d="M0 0 C2.74657411 1.31252214 5.25723654 2.75293501 7.75 4.5 C8.36359375 4.9228125 8.9771875 5.345625 9.609375 5.78125 C10.29773438 6.38453125 10.29773438 6.38453125 11 7 C11 7.66 11 8.32 11 9 C11.556875 9.226875 12.11375 9.45375 12.6875 9.6875 C15.65239972 11.37028092 17.616515 13.56108512 20 16 C21.17947116 17.0094573 22.36735315 18.00915175 23.5625 19 C26.42842191 21.42789891 28.84484188 23.89657231 31 27 C31 27.66 31 28.32 31 29 C31.86625 29.309375 31.86625 29.309375 32.75 29.625 C35.83714152 31.51158648 37.08871677 33.95389235 39 37 C39.61875 37.76570313 40.2375 38.53140625 40.875 39.3203125 C51.09324557 52.20582069 57.65289953 67.33646635 56 84 C53.80371761 93.30854266 49.96880264 101.3234871 43 108 C42.34 108 41.68 108 41 108 C39.2734375 105.5859375 39.2734375 105.5859375 37.375 102.375 C36.74335938 101.33085938 36.11171875 100.28671875 35.4609375 99.2109375 C33.89576228 95.77089998 33.59272018 93.7281768 34 90 C34.495 89.01 34.99 88.02 35.5 87 C38.87622525 79.56251829 37.90647673 70.74778511 35.30395508 63.22216797 C32.23146897 55.30877109 27.70571737 49.28666314 22 43 C21.33742188 42.15308594 20.67484375 41.30617187 19.9921875 40.43359375 C18.05971463 38.07294552 16.07057841 36.15999165 13.75 34.1875 C12.69039062 33.28064453 12.69039062 33.28064453 11.609375 32.35546875 C10.81273437 31.68451172 10.81273437 31.68451172 10 31 C3.59258214 43.85755183 -4.45223698 60.97977592 -0.24609375 75.625 C2.41726994 82.64374666 5.77385088 87.64169561 12 92 C13.32256777 92.37376915 14.65547574 92.71514317 16 93 C15.5978125 91.081875 15.5978125 91.081875 15.1875 89.125 C14.16412176 83.99338393 13.25343843 78.84552362 12.375 73.6875 C12.23989014 72.91100098 12.10478027 72.13450195 11.96557617 71.33447266 C11.32353483 67.51195255 10.82905767 63.89282316 11 60 C14.41373755 61.03631318 15.12691595 62.21218761 17 65.34375 C17.68061008 66.72237022 18.34660009 68.1082772 19 69.5 C19.35030273 70.22832031 19.70060547 70.95664063 20.06152344 71.70703125 C21.05753208 73.79744267 22.03274157 75.89616001 23 78 C23.41765625 78.8971875 23.8353125 79.794375 24.265625 80.71875 C27.48500823 88.17954288 29.17135482 96.11298894 31 104 C31.18095215 104.76006348 31.3619043 105.52012695 31.54833984 106.30322266 C33.66376883 115.19321565 35.50654114 123.84583456 36 133 C43.08170731 133.0709827 50.11197462 132.93211845 57.18286133 132.54125977 C72.9676051 131.7027068 85.99026269 131.70373098 100 140 C100 140.66 100 141.32 100 142 C100.66 141.67 101.32 141.34 102 141 C93.84223575 124.12543689 85.12307632 108.50929499 68.80078125 98.3046875 C68.20652344 97.87414062 67.61226562 97.44359375 67 97 C67 96.34 67 95.68 67 95 C78.62601691 94.08815554 90.21059638 99.02173825 100 105 C102.33984375 107.1875 102.33984375 107.1875 104 109 C104.66 108.67 105.32 108.34 106 108 C105.4091951 103.92344621 104.03428527 101.05999922 102 97.5 C97.52132236 88.72566761 96.90694025 79.29272729 99.03125 69.69140625 C102.85162112 59.07755263 111.5275085 51.62756859 121.43408203 46.81835938 C133.65896767 41.19212101 145.3441084 37.15027965 158.625 34.875 C159.64851562 34.69324219 160.67203125 34.51148438 161.7265625 34.32421875 C162.7165625 34.15277344 163.7065625 33.98132812 164.7265625 33.8046875 C165.61939941 33.64983887 166.51223633 33.49499023 167.43212891 33.33544922 C169.98683825 33.00171936 172.42686208 32.94037498 175 33 C174.76651024 39.26593426 174.52687374 45.53155749 174.27734375 51.796875 C174.10039603 56.26525165 173.94493008 60.73310975 173.81640625 65.203125 C173.40046539 78.49074916 171.9430334 89.42524508 166.125 101.5 C165.79749756 102.18368652 165.46999512 102.86737305 165.13256836 103.57177734 C163.002733 107.74615063 160.89736701 110.24395844 157 113 C156.443125 113.680625 155.88625 114.36125 155.3125 115.0625 C148.79656143 120.52179989 140.09178322 120.41535769 132 120 C130.72408685 115.09734742 131.29362931 112.03737004 133.23828125 107.41796875 C136.16105148 103.40645041 140.30644183 102.28487555 144.79296875 100.45703125 C149.65946819 98.24606378 152.51106379 95.73797495 155 91 C159.43184425 78.43208348 158.71728472 64.15953716 159 51 C143.89270086 54.47957469 126.99056323 59.26716166 118 73 C116.49843126 76.00313748 116.90718796 78.79067522 116.9375 82.125 C116.94652344 83.40632813 116.95554687 84.68765625 116.96484375 86.0078125 C116.97644531 86.99523437 116.98804688 87.98265625 117 89 C117.928125 88.01 117.928125 88.01 118.875 87 C121 85 121 85 123 85 C123.23460937 84.4121875 123.46921875 83.824375 123.7109375 83.21875 C127.41783062 76.83840063 136.42657014 72.88308327 143 70 C143.99 70 144.98 70 146 70 C144.57942432 76.75529072 140.35598508 82.49018495 136.625 88.1875 C133.28399575 93.37579817 130.53334583 98.73959551 127.8515625 104.29296875 C126.56077636 106.93617572 125.17281544 109.49828628 123.7109375 112.05078125 C123.33251709 112.72077148 122.95409668 113.39076172 122.56420898 114.08105469 C121.82828821 115.3752547 121.07831126 116.66158971 120.31274414 117.93847656 C118.32009168 121.45860688 118.32009168 121.45860688 118.53515625 125.37109375 C119.01855469 126.23863281 119.50195312 127.10617188 120 128 C123.09786594 134.38396886 125.13936628 140.65906048 126.75 147.5625 C126.97042969 148.47580078 127.19085938 149.38910156 127.41796875 150.33007812 C127.95301174 152.55166968 128.48019897 154.7748024 129 157 C133.09790978 156.32595129 136.7096882 155.03576739 140.5625 153.5 C151.96281852 148.96623171 165.95215473 147.41469607 177.625 152.0625 C179.44864514 152.98073483 181.2433942 153.95924408 183 155 C183.86753906 155.50789062 184.73507812 156.01578125 185.62890625 156.5390625 C194.17801098 162.04703532 201.68854716 169.71379387 206 179 C206.49371094 179.99515625 206.98742187 180.9903125 207.49609375 182.015625 C216.15493362 200.53765176 217.64658166 227.57613106 210.63671875 246.94140625 C209.20039141 250.67621846 207.61790353 254.34016224 206 258 C205.4946875 259.19496094 204.989375 260.38992188 204.46875 261.62109375 C200.00955052 271.87962446 193.95675696 280.34423308 187 289 C186.23945313 289.95132812 185.47890625 290.90265625 184.6953125 291.8828125 C183.85613281 292.93082031 183.85613281 292.93082031 183 294 C183.81984375 294.38671875 184.6396875 294.7734375 185.484375 295.171875 C186.56203125 295.69265625 187.6396875 296.2134375 188.75 296.75 C189.81734375 297.26046875 190.8846875 297.7709375 191.984375 298.296875 C196.00123052 300.5654618 198.46989358 302.47594404 200 306.875 C200 311.06377215 198.62958114 312.80186078 196 316 C173.3080185 336.75486113 118.87869907 335.68511649 90.25 336.5625 C89.23120758 336.59376984 89.23120758 336.59376984 88.1918335 336.62567139 C60.46196939 337.45583014 32.71504115 337.21486581 5 336 C3.99098633 335.95681641 2.98197266 335.91363281 1.94238281 335.86914062 C-11.84218126 335.19289824 -25.40264246 332.94032199 -39 330.6875 C-39.878909 330.54487732 -40.75781799 330.40225464 -41.6633606 330.25531006 C-56.73352278 327.78622427 -73.13311162 324.74612021 -86 316 C-87.91857564 313.30475808 -88.91795468 311.34309863 -89.6875 308.125 C-88.77579487 303.98088576 -86.84985367 302.44863717 -83.7265625 299.7109375 C-75.73581117 294.6966838 -66.41348609 292.59778959 -57.375 290.25 C-56.18003906 289.93417969 -54.98507813 289.61835938 -53.75390625 289.29296875 C-50.83737019 288.52300323 -47.91945321 287.75881471 -45 287 C-45.495 285.515 -45.495 285.515 -46 284 C-46.5775 283.71125 -47.155 283.4225 -47.75 283.125 C-50.77996233 281.61001884 -52.63367027 279.42136065 -55 277 C-56.13996896 276.05537783 -57.28615011 275.11821677 -58.4375 274.1875 C-62.31755557 270.87607326 -65.15545817 267.21776891 -68 263 C-68.60585937 262.12085938 -69.21171875 261.24171875 -69.8359375 260.3359375 C-74.24959164 253.58461675 -77.6751452 246.6415154 -80.875 239.25 C-81.2563208 238.37512939 -81.6376416 237.50025879 -82.03051758 236.59887695 C-85.78140311 227.6822021 -87.27293537 219.09620328 -88.125 209.5 C-88.21136719 208.61441406 -88.29773438 207.72882813 -88.38671875 206.81640625 C-89.96842176 189.71894987 -88.80305331 173.05591847 -80 158 C-79.525625 156.783125 -79.05125 155.56625 -78.5625 154.3125 C-72.27333551 140.97947127 -59.00539107 130.71065852 -45.33496094 125.78442383 C-32.33496368 121.41060811 -19.98015832 121.06226101 -6.5625 123.75 C-5.64960205 123.92756836 -4.7367041 124.10513672 -3.79614258 124.28808594 C2.74738487 125.61439001 8.82734428 127.42038268 15 130 C15.66 125.71 16.32 121.42 17 117 C15.02 116.34 13.04 115.68 11 115 C-2.68563894 108.73031008 -12.48870933 101.29852335 -18 87 C-22.57432708 74.07641572 -19.78232497 60.70909838 -16 48 C-15.80212891 47.32646484 -15.60425781 46.65292969 -15.40039062 45.95898438 C-12.9803861 37.79049012 -10.24600138 29.75730954 -7.3359375 21.75 C-4.76807069 14.54195281 -2.39734969 7.26619389 0 0 Z " fill="#0F294A" transform="translate(208,11)"/>
<path d="M0 0 C0.82149033 0.25186066 1.64298065 0.50372131 2.48936462 0.76321411 C4.13077702 1.27801118 5.76813413 1.80600636 7.40016174 2.349823 C23.37289684 7.66829769 38.11019306 8.27235074 54.84179688 7.87231445 C58.46410865 7.81482508 62.08642757 7.76601516 65.70890808 7.72050476 C67.93928555 7.68942685 70.16956307 7.64970661 72.39961243 7.60041809 C73.38962753 7.58097641 74.37964264 7.56153473 75.3996582 7.54150391 C76.27262039 7.52118607 77.14558258 7.50086823 78.04499817 7.47993469 C80.02929688 7.55981445 80.02929688 7.55981445 81.02929688 8.55981445 C82.16367187 8.70418945 83.29804688 8.84856445 84.46679688 8.99731445 C88.02929688 9.55981445 88.02929688 9.55981445 90.02929688 11.55981445 C91.60710937 12.11668945 91.60710937 12.11668945 93.21679688 12.68481445 C99.93683367 15.47082971 104.30066127 21.99994154 107.18554688 28.46606445 C107.60320312 29.5024707 107.60320312 29.5024707 108.02929688 30.55981445 C108.32835937 31.25075195 108.62742187 31.94168945 108.93554688 32.65356445 C115.25206929 49.7315695 110.16181428 70.66509465 103.02929688 86.55981445 C98.59867437 95.71832168 92.34805913 104.46740567 85.02929688 111.55981445 C84.36929688 111.55981445 83.70929688 111.55981445 83.02929688 111.55981445 C82.80242187 112.13086914 82.57554687 112.70192383 82.34179688 113.2902832 C74.03346747 127.65676946 51.15360547 137.52657409 35.84179688 142.18481445 C35.14376953 142.40137695 34.44574219 142.61793945 33.7265625 142.84106445 C16.88607695 148.03261281 -1.80454182 147.48730142 -17.58398438 139.18481445 C-19.42814546 138.05202081 -21.20725939 136.81457249 -22.97070312 135.55981445 C-24.29355656 134.8725874 -25.62474405 134.20060801 -26.97070312 133.55981445 C-26.97070312 132.89981445 -26.97070312 132.23981445 -26.97070312 131.55981445 C-27.52113281 131.49149414 -28.0715625 131.42317383 -28.63867188 131.3527832 C-31.92195347 130.23635747 -33.77313644 128.2474695 -36.28320312 125.87231445 C-39.35335908 122.97456466 -42.41731976 120.1767795 -45.78320312 117.62231445 C-49.42256754 114.53620258 -51.30462301 110.75276497 -53.43554688 106.53637695 C-54.99208496 103.51835655 -56.73611897 100.68980677 -58.53320312 97.80981445 C-66.04959084 85.00534866 -69.36590085 70.44571891 -69.22070312 55.68481445 C-69.21683594 54.72752441 -69.21296875 53.77023438 -69.20898438 52.78393555 C-69.1246086 45.87098108 -68.56484636 39.30645634 -66.97070312 32.55981445 C-66.31070313 32.55981445 -65.65070313 32.55981445 -64.97070312 32.55981445 C-64.86757812 31.67293945 -64.76445312 30.78606445 -64.65820312 29.87231445 C-63.94734471 26.44726937 -62.83989148 24.47574828 -60.97070312 21.55981445 C-60.72320312 20.79668945 -60.47570312 20.03356445 -60.22070312 19.24731445 C-55.58158159 9.27320316 -45.58762996 2.91454954 -35.84570312 -1.37768555 C-23.42855185 -5.74910371 -12.17467011 -3.73949964 0 0 Z " fill="#1B69C3" transform="translate(204.970703125,153.440185546875)"/>
<path d="M0 0 C3.32529152 2.44149311 6.39640132 4.83707157 9.3515625 7.7265625 C9.3515625 8.3865625 9.3515625 9.0465625 9.3515625 9.7265625 C10.0115625 9.7265625 10.6715625 9.7265625 11.3515625 9.7265625 C21.56514961 22.42453566 22.40145161 39.97391999 21.59277344 55.56225586 C21.29761809 58.21058804 20.49148265 60.32718 19.3515625 62.7265625 C18.95660473 64.49305169 18.58300109 66.26439993 18.2265625 68.0390625 C15.502217 79.19787158 9.68286254 89.46070874 2.86328125 98.625 C1.50704567 100.51041277 0.45701894 102.3463672 -0.5859375 104.4140625 C-2.88646305 108.10884595 -5.42059627 110.40075115 -8.75 113.1484375 C-10.79748064 114.79445504 -10.79748064 114.79445504 -13.0234375 117.1640625 C-14.6484375 118.7265625 -14.6484375 118.7265625 -16.6484375 118.7265625 C-17.1434375 120.2115625 -17.1434375 120.2115625 -17.6484375 121.7265625 C-20.08984375 123.41015625 -20.08984375 123.41015625 -23.2109375 125.1640625 C-24.84289062 126.08251953 -24.84289062 126.08251953 -26.5078125 127.01953125 C-30.1805341 129.01577421 -33.84759656 130.98481791 -37.6484375 132.7265625 C-38.66164063 133.24992188 -39.67484375 133.77328125 -40.71875 134.3125 C-45.45120906 136.31751377 -50.14097706 136.17708369 -55.2109375 136.1015625 C-56.18530762 136.09213623 -57.15967773 136.08270996 -58.16357422 136.07299805 C-77.22681252 135.67696487 -94.91452423 128.94688621 -109.6484375 116.7265625 C-108.41527498 113.02707493 -106.942296 112.67752348 -103.64501953 110.90478516 C-100.12011362 108.82466827 -97.14755632 106.11217284 -94.0859375 103.4140625 C-93.45236328 102.87072266 -92.81878906 102.32738281 -92.16601562 101.76757812 C-88.35575593 98.44390154 -85.03466125 94.98890523 -81.89477539 91.02270508 C-81.48348389 90.59497803 -81.07219238 90.16725098 -80.6484375 89.7265625 C-79.9884375 89.7265625 -79.3284375 89.7265625 -78.6484375 89.7265625 C-78.3390625 89.1078125 -78.0296875 88.4890625 -77.7109375 87.8515625 C-77.0234375 86.4765625 -76.3359375 85.1015625 -75.6484375 83.7265625 C-74.9884375 83.7265625 -74.3284375 83.7265625 -73.6484375 83.7265625 C-73.37515625 82.98535156 -73.101875 82.24414062 -72.8203125 81.48046875 C-71.72417574 78.90454736 -70.52204217 76.92925289 -68.8984375 74.6640625 C-57.47331163 57.80503531 -53.54267786 39.60553884 -53.0234375 19.5390625 C-52.98476563 18.30091797 -52.94609375 17.06277344 -52.90625 15.78710938 C-52.81296681 12.76706624 -52.72717344 9.7470139 -52.6484375 6.7265625 C-49.6784375 6.0665625 -46.7084375 5.4065625 -43.6484375 4.7265625 C-43.6484375 4.0665625 -43.6484375 3.4065625 -43.6484375 2.7265625 C-41.23303444 1.74417842 -38.81621928 0.76556032 -36.3984375 -0.2109375 C-35.71652344 -0.48873047 -35.03460938 -0.76652344 -34.33203125 -1.05273438 C-22.93422838 -5.64505301 -10.69265623 -6.81616455 0 0 Z " fill="#4A8FE1" transform="translate(384.6484375,182.2734375)"/>
<path d="M0 0 C3.29052614 4.93578922 3.56996906 10.81767274 2.53125 16.6171875 C1.44862972 20.20630908 0.56773055 22.4647112 -2.1875 25.0625 C-2.785625 25.371875 -3.38375 25.68125 -4 26 C-3.51789063 26.38671875 -3.03578125 26.7734375 -2.5390625 27.171875 C-1.90742188 27.69265625 -1.27578125 28.2134375 -0.625 28.75 C0.00148437 29.26046875 0.62796875 29.7709375 1.2734375 30.296875 C4.79761422 33.77321222 5.31197368 36.88436818 5.375 41.75 C5.22702237 47.27898249 4.93491691 51.86234733 1 56 C-8.12400152 61.89769264 -16.08718964 63.19319994 -26.6875 63.25 C-28.10192383 63.2809375 -28.10192383 63.2809375 -29.54492188 63.3125 C-36.96796964 63.35331401 -44.60273709 62.73438235 -50.5625 57.9375 C-52.95684133 54.7103443 -53.13620767 52.76815986 -53.17700195 48.78759766 C-53.18983719 47.69951813 -53.20267242 46.6114386 -53.21589661 45.49038696 C-53.22328354 44.31019989 -53.23067047 43.13001282 -53.23828125 41.9140625 C-53.25038887 40.10136368 -53.25038887 40.10136368 -53.26274109 38.25204468 C-53.27658995 35.69148192 -53.2873085 33.13090065 -53.29516602 30.5703125 C-53.31239858 26.64808372 -53.35628161 22.72669326 -53.40039062 18.8046875 C-53.41051541 16.32031871 -53.41903218 13.83594275 -53.42578125 11.3515625 C-53.44328934 10.17542389 -53.46079742 8.99928528 -53.47883606 7.7875061 C-53.47444771 6.14593033 -53.47444771 6.14593033 -53.4699707 4.47119141 C-53.47583694 3.50903717 -53.48170319 2.54688293 -53.48774719 1.55557251 C-52.85719463 -1.74823494 -51.5698321 -2.90133426 -49 -5 C-35.41519701 -11.74886046 -11.35283601 -10.09140979 0 0 Z M-33 9 C-33.09823937 10.66429051 -33.12973631 12.33281931 -33.125 14 C-33.12757813 14.9075 -33.13015625 15.815 -33.1328125 16.75 C-33.25173779 18.96966611 -33.25173779 18.96966611 -32 20 C-25.8755565 20.80136108 -25.8755565 20.80136108 -20.2265625 18.8828125 C-18.7043101 17.38534676 -18.7043101 17.38534676 -17 15 C-18.24976756 11.34683329 -18.67098753 10.21934164 -22 8 C-24.48070815 7.7210553 -24.48070815 7.7210553 -27.125 7.8125 C-28.01445312 7.81894531 -28.90390625 7.82539063 -29.8203125 7.83203125 C-31.97736529 7.76046952 -31.97736529 7.76046952 -33 9 Z M-33 35 C-33.02687279 36.81242052 -33.04633715 38.62495233 -33.0625 40.4375 C-33.07410156 41.44683594 -33.08570313 42.45617187 -33.09765625 43.49609375 C-33.28612676 45.94021067 -33.28612676 45.94021067 -32 47 C-30.06668191 47.15209159 -28.12658716 47.22186331 -26.1875 47.25 C-24.60001953 47.28867187 -24.60001953 47.28867187 -22.98046875 47.328125 C-19.67301008 46.96400111 -18.37685521 46.27158657 -16 44 C-14.83333333 42.16666667 -14.83333333 42.16666667 -15 40 C-16.47467775 37.24878039 -16.47467775 37.24878039 -19 35 C-22.49975135 34.39614308 -22.49975135 34.39614308 -26.25 34.6875 C-27.51328125 34.73261719 -28.7765625 34.77773438 -30.078125 34.82421875 C-31.04234375 34.88222656 -32.0065625 34.94023437 -33 35 Z " fill="#122B4B" transform="translate(209,395)"/>
<path d="M0 0 C5.71263579 4.64518229 9.90370195 10.05023594 11.6875 17.25 C12.04664863 21.16933982 12.10325165 25.06596425 12.125 29 C12.15787109 30.03382813 12.19074219 31.06765625 12.22460938 32.1328125 C12.28731503 41.1852282 9.43382727 47.04973477 4.5625 54.5 C-3.26087899 61.98323208 -12.62323338 65.18009758 -23.3203125 65.27734375 C-34.3355599 64.72798998 -42.68790668 61.27959481 -50.3125 53.25 C-58.21586573 43.45839172 -58.51727525 32.32675144 -57.3125 20.25 C-55.84262866 12.2048462 -52.79489789 5.41979868 -46.3125 0.25 C-31.44924414 -8.6523695 -14.7795372 -10.20624644 0 0 Z M-35.3125 17.25 C-36.58114164 21.05592493 -36.53570072 24.65870641 -36.5625 28.625 C-36.583125 29.38039063 -36.60375 30.13578125 -36.625 30.9140625 C-36.66826444 37.10087685 -34.97990246 40.15383691 -31.125 45 C-27.55296822 47.85762543 -24.84704272 48.55289676 -20.3125 48.25 C-15.59290753 46.61629491 -13.02549502 44.41638521 -10.3125 40.25 C-7.37468998 34.08059896 -7.10006637 26.87728077 -9.2578125 20.421875 C-10.9597036 16.76120358 -12.61900642 13.90496615 -15.5625 11.125 C-24.18282523 8.38216925 -29.49114866 10.31486971 -35.3125 17.25 Z " fill="#102A4A" transform="translate(134.3125,393.75)"/>
<path d="M0 0 C6.53894602 5.54860772 9.66179768 13.67483751 11 22 C11.71903942 33.18691558 9.59958458 43.13763129 3.30078125 52.53515625 C0.56684027 55.46404718 -2.36600132 57.07150852 -5.9375 58.75 C-6.84918945 59.20439453 -6.84918945 59.20439453 -7.77929688 59.66796875 C-18.77353789 65.00497895 -34.73378086 64.87579641 -46.22265625 60.94921875 C-48.98046679 59.47636609 -50.60691199 57.78617601 -52 55 C-52.11611732 53.23987737 -52.16961378 51.47546527 -52.19287109 49.71166992 C-52.20893402 48.60679733 -52.22499695 47.50192474 -52.24154663 46.36357117 C-52.28592035 41.30838576 -52.32705801 36.25333255 -52.35009766 31.19799805 C-52.36343287 28.52908439 -52.39395802 25.86197813 -52.43212891 23.19311523 C-52.48681351 19.35116487 -52.50875987 15.51025556 -52.5234375 11.66796875 C-52.54610687 10.47511765 -52.56877625 9.28226654 -52.59213257 8.05326843 C-52.56856533 -1.16122937 -52.56856533 -1.16122937 -49.6015625 -4.23388672 C-36.15525999 -13.36212925 -12.54304184 -8.67593789 0 0 Z M-32 9 C-32 21.21 -32 33.42 -32 46 C-24.60101145 47.18165629 -24.60101145 47.18165629 -18 45 C-13.26874518 40.71171127 -10.35614912 37.0888659 -9.796875 30.66796875 C-9.65890666 23.36714387 -10.8269813 18.05538281 -16 12.625 C-21.61294644 7.71367187 -23.48259801 9 -32 9 Z " fill="#102A4A" transform="translate(487,395)"/>
<path d="M0 0 C1.051875 0.45375 2.10375 0.9075 3.1875 1.375 C9.19932373 4.84849815 13.0619747 8.71734768 16 15 C16.28875 15.60714844 16.5775 16.21429688 16.875 16.83984375 C21.58295859 27.90807333 20.25213731 39.27519218 16.1875 50.3125 C12.850965 57.9647705 8.68050377 61.9458955 1.29296875 65.734375 C-9.47684104 69.87366132 -21.48020816 70.2756669 -32.09375 65.65234375 C-40.37420116 61.31740459 -45.38045571 55.92283405 -49.15234375 47.39453125 C-50.37348378 42.50434377 -50.40840976 37.77291544 -50.4375 32.75 C-50.47037109 31.76386719 -50.50324219 30.77773438 -50.53710938 29.76171875 C-50.59098294 22.32716664 -48.84054897 17.3148365 -45 11 C-44.38125 9.88238281 -43.7625 8.76476562 -43.125 7.61328125 C-40.5251214 4.41600407 -37.67801303 2.85337829 -34 1.1875 C-33.38382812 0.88908203 -32.76765625 0.59066406 -32.1328125 0.28320312 C-21.937352 -4.56292241 -10.33684914 -4.64409164 0 0 Z M-25 17 C-29.34521095 22.96545911 -30.49022438 28.64663427 -30 36 C-28.63593582 42.15439979 -26.45923615 46.54076385 -22 51 C-18.38069302 52.20643566 -15.80768995 52.32268559 -12 52 C-7.14893677 49.52690894 -4.58358111 46.75638363 -2 42 C-1.36597033 38.86103342 -1.28686106 35.82111246 -1.3125 32.625 C-1.3139502 31.77953613 -1.31540039 30.93407227 -1.31689453 30.06298828 C-1.48620081 25.07764392 -1.97642662 21.76313823 -5.375 17.875 C-9.46860531 14.21939361 -12.36359673 13.69801613 -17.75 13.79296875 C-20.95624042 14.0879874 -22.58644695 14.86228159 -25 17 Z " fill="#122B4B" transform="translate(406,390)"/>
<path d="M0 0 C2.32909075 2.09618168 2.78943335 3.78045284 3.08032227 6.86401367 C3.11697998 7.68619385 3.1536377 8.50837402 3.19140625 9.35546875 C3.23330078 10.24814453 3.27519531 11.14082031 3.31835938 12.06054688 C3.35767578 12.98931641 3.39699219 13.91808594 3.4375 14.875 C3.48068359 15.81537109 3.52386719 16.75574219 3.56835938 17.72460938 C3.67438543 20.04540188 3.77519194 22.36643177 3.875 24.6875 C9.815 25.0175 15.755 25.3475 21.875 25.6875 C21.875 17.1075 21.875 8.5275 21.875 -0.3125 C27.566201 -1.73530025 33.15332207 -1.99291948 38.875 -0.5625 C41.34660944 0.9822559 41.82496323 1.98257194 42.875 4.6875 C43.13569641 7.47085571 43.13569641 7.47085571 43.1496582 10.70947266 C43.16395622 12.5312352 43.16395622 12.5312352 43.17854309 14.38980103 C43.17763168 15.69718231 43.17672028 17.0045636 43.17578125 18.3515625 C43.17966914 19.70869071 43.184004 21.0658177 43.18876648 22.42294312 C43.1962177 25.26247105 43.19594429 28.10187459 43.19067383 30.94140625 C43.18486372 34.58455029 43.20185189 38.22718848 43.2250185 41.87024879 C43.23972592 44.67032864 43.24063197 47.47028556 43.23750877 50.27039719 C43.23827318 52.26798487 43.25216151 54.26555347 43.26618958 56.26309204 C43.25996078 57.47129608 43.25373199 58.67950012 43.24731445 59.92431641 C43.24794388 60.99146881 43.2485733 62.05862122 43.2492218 63.15811157 C43.12572861 63.99280975 43.00223541 64.82750793 42.875 65.6875 C39.45170149 67.96969901 38.03362332 67.98491163 34 68 C32.97132813 68.01675781 31.94265625 68.03351563 30.8828125 68.05078125 C27.46147101 67.63755429 25.60025628 66.77295597 22.875 64.6875 C21.91411617 61.80484851 21.75829059 60.01087729 21.77734375 57.01953125 C21.78056641 56.12685547 21.78378906 55.23417969 21.78710938 54.31445312 C21.79967773 52.92129883 21.79967773 52.92129883 21.8125 51.5 C21.81701172 50.55962891 21.82152344 49.61925781 21.82617188 48.65039062 C21.83795355 46.32939992 21.85588886 44.00844193 21.875 41.6875 C15.935 42.0175 9.995 42.3475 3.875 42.6875 C3.545 50.6075 3.215 58.5275 2.875 66.6875 C0.0555932 68.0972034 -2.35767226 67.85734647 -5.5 67.875 C-6.64210938 67.88917969 -7.78421875 67.90335937 -8.9609375 67.91796875 C-12.02966859 67.69444389 -13.65476692 67.4753171 -16.125 65.6875 C-18.30685386 62.30653138 -18.36819296 59.51296817 -18.35205078 55.54199219 C-18.35189972 54.30100769 -18.35174866 53.06002319 -18.35159302 51.78143311 C-18.34138061 50.4324121 -18.33094864 49.08339273 -18.3203125 47.734375 C-18.31658049 46.3500387 -18.31373441 44.96569975 -18.31173706 43.58135986 C-18.30411534 39.9448309 -18.28447955 36.30846269 -18.2623291 32.67199707 C-18.24183909 28.95843683 -18.23272861 25.24485052 -18.22265625 21.53125 C-18.20123215 14.24992686 -18.16711401 6.96873599 -18.125 -0.3125 C-12.15839154 -1.89597966 -5.76203558 -2.42005495 0 0 Z " fill="#162F4E" transform="translate(303.125,389.3125)"/>
<path d="M0 0 C2.81627845 2.95551019 3.41163722 5.01408681 3.375 9.0625 C3.38660156 10.34833984 3.38660156 10.34833984 3.3984375 11.66015625 C2.92448326 14.44347574 2.28580537 15.37573359 0 17 C-2.97282831 16.810245 -5.23732059 16.42228355 -7.85546875 14.97265625 C-12.00255176 13.09173882 -16.55374404 13.46028107 -21 14 C-24.15310942 15.29546356 -26.43834289 16.87668579 -28 20 C-28.66 20 -29.32 20 -30 20 C-30.05425013 22.87525669 -30.09379277 25.74947646 -30.125 28.625 C-30.14175781 29.43324219 -30.15851563 30.24148438 -30.17578125 31.07421875 C-30.2138606 35.75797871 -30.01783884 39.6704623 -28 44 C-26.44995829 45.69269667 -26.44995829 45.69269667 -24.5625 46.8125 C-23.96566406 47.21082031 -23.36882812 47.60914063 -22.75390625 48.01953125 C-18.80339848 50.22794428 -15.44506424 50.29633762 -11 50 C-8.65429915 49.02936517 -6.31979381 48.03101947 -4 47 C-1.0625 46.8125 -1.0625 46.8125 1 47 C3.63956952 51.22331123 4.56994645 54.26887373 3.69140625 59.10546875 C2.4382701 62.5392034 0.12945878 64.38289473 -3 66 C-12.62488462 69.39179513 -24.06461526 68.86152882 -33.48046875 64.9765625 C-35.35077438 64.04306482 -37.18087983 63.02969066 -39 62 C-39 61.34 -39 60.68 -39 60 C-39.5775 59.9175 -40.155 59.835 -40.75 59.75 C-44.69763068 58.43412311 -46.59479831 55.79402056 -48.44921875 52.16015625 C-48.85785156 51.13792969 -49.26648438 50.11570312 -49.6875 49.0625 C-50.10386719 48.04285156 -50.52023438 47.02320313 -50.94921875 45.97265625 C-54.87994305 34.85265182 -53.60147837 23.52035561 -48.875 12.9375 C-44.50725348 4.59907482 -37.08730964 -0.65331303 -28.2421875 -3.58203125 C-19.10377814 -5.28553265 -7.961303 -5.25348711 0 0 Z " fill="#132D4D" transform="translate(273,391)"/>
<path d="M0 0 C-0.23348976 6.26593426 -0.47312626 12.53155749 -0.72265625 18.796875 C-0.89960397 23.26525165 -1.05506992 27.73310975 -1.18359375 32.203125 C-1.59953461 45.49074916 -3.0569666 56.42524508 -8.875 68.5 C-9.20250244 69.18368652 -9.53000488 69.86737305 -9.86743164 70.57177734 C-11.997267 74.74615063 -14.10263299 77.24395844 -18 80 C-18.556875 80.680625 -19.11375 81.36125 -19.6875 82.0625 C-26.20343857 87.52179989 -34.90821678 87.41535769 -43 87 C-44.27591315 82.09734742 -43.70637069 79.03737004 -41.76171875 74.41796875 C-38.83894852 70.40645041 -34.69355817 69.28487555 -30.20703125 67.45703125 C-25.34053181 65.24606378 -22.48893621 62.73797495 -20 58 C-15.56815575 45.43208348 -16.28271528 31.15953716 -16 18 C-17.04800781 18.30035156 -18.09601563 18.60070312 -19.17578125 18.91015625 C-20.55456379 19.29471465 -21.93347697 19.67880489 -23.3125 20.0625 C-24.00279297 20.26166016 -24.69308594 20.46082031 -25.40429688 20.66601562 C-30.66015625 22.11328125 -30.66015625 22.11328125 -34 21 C-33.01 20.67 -32.02 20.34 -31 20 C-31 19.34 -31 18.68 -31 18 C-30.34 18 -29.68 18 -29 18 C-29.33 16.35 -29.66 14.7 -30 13 C-29.360625 12.896875 -28.72125 12.79375 -28.0625 12.6875 C-27.381875 12.460625 -26.70125 12.23375 -26 12 C-25.67 11.01 -25.34 10.02 -25 9 C-29.04141194 8.36605303 -32.9065307 7.87595548 -37 8 C-32.16811991 3.16811991 -22.85319925 2.98484378 -16.375 1.875 C-15.35148437 1.69324219 -14.32796875 1.51148438 -13.2734375 1.32421875 C-12.2834375 1.15277344 -11.2934375 0.98132812 -10.2734375 0.8046875 C-9.38060059 0.64983887 -8.48776367 0.49499023 -7.56787109 0.33544922 C-5.01316175 0.00171936 -2.57313792 -0.05962502 0 0 Z " fill="#132D4C" transform="translate(383,44)"/>
<path d="M0 0 C1.14210938 -0.03738281 2.28421875 -0.07476562 3.4609375 -0.11328125 C7.24074922 0.39536008 8.3115234 1.35760927 10.625 4.3125 C11.98739076 7.03728152 11.74469958 9.18090855 11.73852539 12.23095703 C11.73844986 13.47209259 11.73837433 14.71322815 11.73829651 15.99197388 C11.7331895 17.35142049 11.7279735 18.71086669 11.72265625 20.0703125 C11.72079142 21.45750884 11.71936782 22.84470584 11.71836853 24.23190308 C11.71454848 27.88484512 11.70472255 31.53774748 11.69366455 35.19067383 C11.68343944 38.91747501 11.67886855 42.64428259 11.67382812 46.37109375 C11.66309983 53.68491394 11.64602954 60.99870141 11.625 68.3125 C8.80933745 69.72033127 6.3886293 69.5201814 3.25 69.5625 C2.10789062 69.58828125 0.96578125 69.6140625 -0.2109375 69.640625 C-3.64758246 69.28423219 -4.97419789 68.74743674 -7.375 66.3125 C-8.45957182 63.05878455 -8.49546857 60.7035068 -8.48852539 57.28051758 C-8.48844986 56.03945755 -8.48837433 54.79839752 -8.48829651 53.51972961 C-8.48318991 52.16549642 -8.47797391 50.81126363 -8.47265625 49.45703125 C-8.47079083 48.07126415 -8.46936751 46.68549639 -8.46836853 45.29972839 C-8.4645531 41.6550209 -8.45473113 38.01035335 -8.44366455 34.36566162 C-8.4334295 30.64547262 -8.42886642 26.92527715 -8.42382812 23.20507812 C-8.41310798 15.90753389 -8.39604325 8.61002254 -8.375 1.3125 C-5.56292765 -0.09353618 -3.13490534 0.06692495 0 0 Z " fill="#122B4B" transform="translate(55.375,387.6875)"/>
<path d="M0 0 C5.77806261 0.98118044 9.86704216 4.00863282 13.8125 8.25 C15.3125 10.5625 15.3125 10.5625 15.3125 12.5625 C15.9725 12.5625 16.6325 12.5625 17.3125 12.5625 C20.37349336 19.31612026 20.7702371 25.07389808 20.6875 32.4375 C20.69910156 33.46230469 20.71070313 34.48710937 20.72265625 35.54296875 C20.69660166 42.3779554 19.66802314 48.15536361 17.3125 54.5625 C16.8896875 55.71621094 16.466875 56.86992187 16.03125 58.05859375 C15.42796875 59.51458984 15.42796875 59.51458984 14.8125 61 C14.4103125 61.98871094 14.008125 62.97742188 13.59375 63.99609375 C12.35585004 66.47566776 11.27307149 67.67526659 9.3125 69.5625 C7.45268563 72.42470875 5.69636907 75.33892354 3.93359375 78.26171875 C3.39863281 79.02097656 2.86367188 79.78023438 2.3125 80.5625 C1.6525 80.5625 0.9925 80.5625 0.3125 80.5625 C0.93753284 75.91736954 2.18201308 71.82654327 3.8125 67.4375 C6.30142451 60.70872152 7.49378951 55.43553257 7.5 48.25 C7.51224609 47.51587891 7.52449219 46.78175781 7.53710938 46.02539062 C7.54999284 41.18550376 6.74845523 37.22225987 5.3125 32.5625 C5.3125 31.2425 5.3125 29.9225 5.3125 28.5625 C4.6525 28.5625 3.9925 28.5625 3.3125 28.5625 C1.3125 24.5625 -0.6875 20.5625 -2.6875 16.5625 C-3.51701172 14.97695312 -3.51701172 14.97695312 -4.36328125 13.359375 C-5.90384079 10.10556783 -6.15171185 8.12145752 -5.6875 4.5625 C-4.1987256 1.41953183 -3.42062836 0.71594547 0 0 Z " fill="#08284D" transform="translate(276.6875,173.4375)"/>
<path d="M0 0 C3.98581549 1.34138021 5.45307991 3.74813766 7.625 7.25 C8.21539062 8.18328125 8.80578125 9.1165625 9.4140625 10.078125 C13.08125481 16.83443005 13.41919194 22.81849749 13.4375 30.375 C13.44064209 31.43614014 13.44378418 32.49728027 13.44702148 33.59057617 C13.30762831 42.84586256 11.45783466 50.44044208 8 59 C7.67 59.99 7.34 60.98 7 62 C6.34 62 5.68 62 5 62 C4.90847656 62.71542969 4.81695312 63.43085938 4.72265625 64.16796875 C3.87165786 67.50296243 2.46671273 69.54539173 0.4375 72.3125 C-0.20316406 73.19550781 -0.84382813 74.07851563 -1.50390625 74.98828125 C-1.99761719 75.65214844 -2.49132812 76.31601562 -3 77 C-4 75 -4 75 -3.51171875 73.00390625 C-3.10373047 71.79541016 -3.10373047 71.79541016 -2.6875 70.5625 C2.0110798 55.47531717 3.80987353 38.35090594 -3.4375 23.8125 C-3.87449219 22.99265625 -4.31148438 22.1728125 -4.76171875 21.328125 C-8.42124467 14.4477545 -10.12734207 8.76786629 -10 1 C-6.86358252 -0.56820874 -3.42820517 -0.38163039 0 0 Z " fill="#0A2548" transform="translate(376,197)"/>
<path d="M0 0 C11.97896865 -0.93952695 22.69770011 4.43118925 33 10 C31.72144088 12.55711823 30.13790481 14.11361341 28 16 C27.01 16 26.02 16 25 16 C24.34 15.01 23.68 14.02 23 13 C22.67 14.32 22.34 15.64 22 17 C22.66 17 23.32 17 24 17 C23.67 17.66 23.34 18.32 23 19 C23.33 19.33 23.66 19.66 24 20 C24 20.66 24 21.32 24 22 C20.27029958 20.48795929 18.32084149 18.30171831 15.75 15.25 C11.01365388 9.84149915 5.9412701 5.96084673 0 2 C0 1.34 0 0.68 0 0 Z " fill="#243B59" transform="translate(275,106)"/>
<path d="M0 0 C20.84109253 -0.43069996 20.84109253 -0.43069996 29.18359375 3.5 C33.34735227 5.31387614 37.44738725 5.768115 41.9375 6.1875 C42.71673828 6.26935547 43.49597656 6.35121094 44.29882812 6.43554688 C46.19820797 6.63364171 48.09898762 6.81823841 50 7 C49.67 7.66 49.34 8.32 49 9 C51.52878289 10.26439145 53.62012127 10.29047383 56.4375 10.5 C59.56308718 10.73306642 62.01424829 11.00474943 65 12 C66.50265588 12.06728458 68.00828457 12.07686576 69.51220703 12.05004883 C70.42390656 12.03706253 71.33560608 12.02407623 72.27493286 12.01069641 C73.25928314 11.99298691 74.24363342 11.9752774 75.2578125 11.95703125 C77.3489487 11.93462925 79.44009524 11.91317536 81.53125 11.89257812 C84.82287603 11.85559631 88.11397315 11.81269943 91.40527344 11.75317383 C94.58536226 11.69835297 97.76486679 11.66949169 100.9453125 11.64453125 C101.9175174 11.62074905 102.88972229 11.59696686 103.89138794 11.57246399 C110.28495757 11.54821316 115.51876198 12.54412913 121 16 C121.495 16.99 121.495 16.99 122 18 C118.125 17.125 118.125 17.125 117 16 C115.845 15.835 114.69 15.67 113.5 15.5 C110 15 110 15 109 14 C107.45802395 13.93792634 105.91316847 13.94578124 104.37036133 13.98168945 C102.88533867 14.01085197 102.88533867 14.01085197 101.37031555 14.04060364 C99.74261482 14.07657906 99.74261482 14.07657906 98.08203125 14.11328125 C95.77020422 14.14549407 93.45835338 14.17603337 91.14648438 14.20507812 C87.51325754 14.25382511 83.88130706 14.31085489 80.2487793 14.39770508 C64.72796458 14.75360322 51.1503545 13.70079395 36.37106323 8.78479004 C24.19732969 4.75544797 12.84923706 2.1925635 0 2 C0 1.34 0 0.68 0 0 Z " fill="#073467" transform="translate(176,148)"/>
<path d="M0 0 C-0.33 0.66 -0.66 1.32 -1 2 C0.32 2 1.64 2 3 2 C6 4 6 4 7 7 C5.68 7 4.36 7 3 7 C3.66 7.33 4.32 7.66 5 8 C3.75023244 11.65316671 3.32901247 12.78065836 0 15 C-2.26171875 15.1953125 -2.26171875 15.1953125 -4.6875 15.125 C-5.89986328 15.09792969 -5.89986328 15.09792969 -7.13671875 15.0703125 C-7.75160156 15.04710937 -8.36648438 15.02390625 -9 15 C-9.04241723 12.66705225 -9.04092937 10.33297433 -9 8 C-8.67 7.67 -8.34 7.34 -8 7 C-8.0825 6.21625 -8.165 5.4325 -8.25 4.625 C-8.12625 3.325625 -8.12625 3.325625 -8 2 C-3.92125984 -1.30708661 -3.92125984 -1.30708661 0 0 Z " fill="#122C4C" transform="translate(350,115)"/>
<path d="M0 0 C-0.63506195 3.04556592 -1.64909365 5.42656556 -3.1875 8.125 C-3.62835938 8.89972656 -4.06921875 9.67445312 -4.5234375 10.47265625 C-6.97683022 14.67198189 -9.47484838 18.84347895 -12 23 C-12.87840996 19.90279155 -12.99435406 18.09354597 -12 15 C-10.68 14.67 -9.36 14.34 -8 14 C-9.84188612 11.94729537 -9.84188612 11.94729537 -12 11 C-12.99 10.34 -13.98 9.68 -15 9 C-15.66 8.67 -16.32 8.34 -17 8 C-14.73354942 6.65869239 -12.46239903 5.32683766 -10.1875 4 C-9.54490234 3.6184375 -8.90230469 3.236875 -8.24023438 2.84375 C-3.33984375 0 -3.33984375 0 0 0 Z " fill="#253E5A" transform="translate(354,81)"/>
<path d="M0 0 C4.18391434 1.83677458 5.29786107 3.81323917 7.3125 7.9375 C8.11107422 9.52884766 8.11107422 9.52884766 8.92578125 11.15234375 C10 14 10 14 9 17 C8.01 16.67 7.02 16.34 6 16 C5.67 16.33 5.34 16.66 5 17 C5.09096556 19.86688248 5.23767988 22.70300515 5.4375 25.5625 C5.48970703 26.36880859 5.54191406 27.17511719 5.59570312 28.00585938 C5.72577376 30.00421738 5.86229056 32.00215386 6 34 C5.34 33.67 4.68 33.34 4 33 C3.51342773 30.93383789 3.51342773 30.93383789 3.18359375 28.22265625 C3.05919922 27.23330078 2.93480469 26.24394531 2.80664062 25.22460938 C2.68482422 24.18111328 2.56300781 23.13761719 2.4375 22.0625 C2.24897461 20.54946289 2.24897461 20.54946289 2.05664062 19.00585938 C1.27856909 12.67944529 0.6052612 6.34514024 0 0 Z " fill="#344A66" transform="translate(219,71)"/>
<path d="M0 0 C1.91232422 -0.02126953 1.91232422 -0.02126953 3.86328125 -0.04296875 C7.85325384 0.19748925 10.91288569 0.9520829 14.6875 2.1875 C12.7075 3.1775 12.7075 3.1775 10.6875 4.1875 C10.6875 3.5275 10.6875 2.8675 10.6875 2.1875 C10.0275 2.5175 9.3675 2.8475 8.6875 3.1875 C7.06249432 3.20788538 5.43673144 3.17914105 3.8125 3.125 C-4.56602117 3.06987815 -13.02686554 3.08673715 -19.3125 9.1875 C-20.364375 9.703125 -21.41625 10.21875 -22.5 10.75 C-25.55557478 12.0229729 -25.55557478 12.0229729 -27.3125 15.1875 C-27.9725 14.8575 -28.6325 14.5275 -29.3125 14.1875 C-22.1924167 4.29849541 -11.94107019 0.06000538 0 0 Z " fill="#465C79" transform="translate(111.3125,386.8125)"/>
<path d="M0 0 C0.33 0 0.66 0 1 0 C1.14586576 5.0637918 1.28806594 10.12767042 1.42724609 15.19165039 C1.47480513 16.90489299 1.52326956 18.61811076 1.57275391 20.33129883 C1.92505906 32.55772566 2.06238302 44.76859597 2 57 C2.969375 57.268125 3.93875 57.53625 4.9375 57.8125 C5.948125 58.204375 6.95875 58.59625 8 59 C8.33 59.99 8.66 60.98 9 62 C5.31731261 61.50233954 3.34971233 60.93714041 1 58 C-0.29663922 55.40672157 -0.12003569 53.53591932 -0.11352539 50.63232422 C-0.11344986 49.51131317 -0.11337433 48.39030212 -0.11329651 47.23532104 C-0.10813522 46.02071198 -0.10297394 44.80610291 -0.09765625 43.5546875 C-0.0962413 42.31453888 -0.09482635 41.07439026 -0.09336853 39.79666138 C-0.08871096 36.49881867 -0.07972439 33.20102454 -0.06866455 29.90319824 C-0.05843731 26.53833613 -0.05386809 23.17346692 -0.04882812 19.80859375 C-0.03778269 13.20571007 -0.02103247 6.60285901 0 0 Z " fill="#364960" transform="translate(435,394)"/>
<path d="M0 0 C4.49112189 4.49112189 4.29326302 10.35459636 4.37890625 16.35351562 C4.37761719 17.39185547 4.37632812 18.43019531 4.375 19.5 C4.37693359 21.09618164 4.37693359 21.09618164 4.37890625 22.72460938 C4.26738994 31.06298833 3.07772008 38.19578123 0 46 C-1.00476972 42.87404976 -0.88356881 41.1242531 0 38 C2.0448774 22.36174368 2.0448774 22.36174368 0 7 C-0.03954234 4.66700175 -0.04401732 2.33291811 0 0 Z " fill="#0F3D6C" transform="translate(385,208)"/>
<path d="M0 0 C0.66 0 1.32 0 2 0 C2.04947698 3.93265896 2.08575578 7.86519714 2.10986328 11.7980957 C2.12485495 13.79319618 2.15026731 15.78820946 2.17578125 17.78320312 C2.18222656 19.03681641 2.18867188 20.29042969 2.1953125 21.58203125 C2.20578613 22.73936768 2.21625977 23.8967041 2.22705078 25.08911133 C2 28 2 28 0 31 C0.66 31.33 1.32 31.66 2 32 C1.5359375 32.7734375 1.5359375 32.7734375 1.0625 33.5625 C-0.19943924 36.10490586 -0.19943924 36.10490586 -0.3125 39.5625 C-1 43 -1 43 -3.5625 44.9375 C-4.366875 45.288125 -5.17125 45.63875 -6 46 C-5.48917497 42.83288482 -4.64486309 39.94406413 -3.5625 36.9375 C0.4911443 24.77656711 0.22521707 12.66220406 0 0 Z " fill="#042F5E" transform="translate(315,192)"/>
<path d="M0 0 C6.1016235 8.135498 6.0118253 19.12467422 5 29 C3.99804287 35.07390802 2.52911516 41.04054672 1 47 C0.07234841 43.99010719 -0.00480326 41.8583337 0.55859375 38.76953125 C0.76645508 37.56393555 0.76645508 37.56393555 0.97851562 36.33398438 C1.20571289 35.08584961 1.20571289 35.08584961 1.4375 33.8125 C2.59555174 27.43562993 3.16306262 21.48989236 3 15 C2.34 15 1.68 15 1 15 C0.67 10.05 0.34 5.1 0 0 Z " fill="#3C6EB1" transform="translate(373,222)"/>
<path d="M0 0 C1.65 0 3.3 0 5 0 C1.20382727 4.9824767 -2.89429237 8.40907474 -8 12 C-8.81082031 12.59167969 -9.62164062 13.18335938 -10.45703125 13.79296875 C-15.46347571 17.39976207 -20.4000936 20.40745074 -26 23 C-26.33 22.34 -26.66 21.68 -27 21 C-25.8125 19.5 -25.8125 19.5 -24 18 C-21.3125 17.8125 -21.3125 17.8125 -19 18 C-19 17.34 -19 16.68 -19 16 C-18.01 16 -17.02 16 -16 16 C-15.67 14.68 -15.34 13.36 -15 12 C-13.68 12 -12.36 12 -11 12 C-10.67 11.01 -10.34 10.02 -10 9 C-4.62857143 5 -4.62857143 5 -2 5 C-1.34 3.35 -0.68 1.7 0 0 Z " fill="#2361B1" transform="translate(283,266)"/>
<path d="M0 0 C7.53707979 -0.09309011 15.0740992 -0.16396136 22.61162472 -0.20724869 C26.11246632 -0.2280352 29.61291173 -0.25618599 33.11352539 -0.30175781 C37.14733466 -0.35393628 41.18073428 -0.37301886 45.21484375 -0.390625 C46.45894516 -0.41127014 47.70304657 -0.43191528 48.98484802 -0.45318604 C56.00779567 -0.45498334 62.02059473 0.00592363 68 4 C68.495 4.99 68.495 4.99 69 6 C65.125 5.125 65.125 5.125 64 4 C62.845 3.835 61.69 3.67 60.5 3.5 C57 3 57 3 56 2 C54.35815391 1.91698371 52.71272648 1.90362899 51.06884766 1.91821289 C49.49183578 1.92800926 49.49183578 1.92800926 47.88296509 1.93800354 C46.16585831 1.95515663 46.16585831 1.95515663 44.4140625 1.97265625 C42.01562645 1.98530355 39.61718887 1.99766443 37.21875 2.00976562 C33.41759566 2.03460495 29.61651906 2.06257446 25.81542969 2.09594727 C22.1608021 2.12607825 18.5062744 2.14390505 14.8515625 2.16015625 C13.14052841 2.18034569 13.14052841 2.18034569 11.39492798 2.20094299 C10.33728241 2.20432175 9.27963684 2.2077005 8.18994141 2.21118164 C7.25808014 2.21863907 6.32621887 2.2260965 5.36611938 2.23377991 C3 2 3 2 0 0 Z " fill="#134989" transform="translate(229,160)"/>
<path d="M0 0 C18.15 0 36.3 0 55 0 C55 0.33 55 0.66 55 1 C54.16190796 1.03758423 54.16190796 1.03758423 53.30688477 1.07592773 C50.72527572 1.19343105 48.14389764 1.3154438 45.5625 1.4375 C44.68400391 1.47681641 43.80550781 1.51613281 42.90039062 1.55664062 C38.8035299 1.753169 34.75577071 2.00345662 30.6875 2.53125 C24.61975166 3.25147149 18.53854143 3.10639238 12.4375 3.0625 C11.23802734 3.05798828 10.03855469 3.05347656 8.80273438 3.04882812 C5.86843641 3.03713769 2.93424551 3.02075138 0 3 C0 2.01 0 1.02 0 0 Z " fill="#2362B4" transform="translate(230,161)"/>
<path d="M0 0 C2.56364928 2.56364928 2.28453915 4.31536141 2.32861328 7.81616211 C2.3232959 8.59870361 2.31797852 9.38124512 2.3125 10.1875 C2.30976074 10.98744385 2.30702148 11.7873877 2.30419922 12.61157227 C2.16065381 20.94628063 1.7103378 30.9344933 -3 38 C-3.05513412 36.33372448 -3.09329293 34.66688588 -3.125 33 C-3.14820313 32.071875 -3.17140625 31.14375 -3.1953125 30.1875 C-3.00165933 27.02708032 -2.29875518 24.24691373 -1.48095703 21.19921875 C-0.60126919 17.17676796 -0.52628628 13.10364023 -0.375 9 C-0.33632813 8.12988281 -0.29765625 7.25976562 -0.2578125 6.36328125 C-0.16459113 4.24249514 -0.08125864 2.12127815 0 0 Z " fill="#255EAF" transform="translate(314,192)"/>
<path d="M0 0 C0.99 0.66 1.98 1.32 3 2 C1.37413391 1.910361 -0.25071198 1.80223503 -1.875 1.6875 C-2.77992188 1.62949219 -3.68484375 1.57148438 -4.6171875 1.51171875 C-7.52833176 1.07134935 -9.88698698 0.4014934 -12.65625 -0.53125 C-18.36536346 -2.31300354 -23.68821214 -2.34206257 -29.625 -2.1875 C-31.13126953 -2.16719727 -31.13126953 -2.16719727 -32.66796875 -2.14648438 C-35.11256864 -2.11156152 -37.55597734 -2.06252748 -40 -2 C-28.63427861 -9.5771476 -11.81734286 -4.15305979 0 0 Z " fill="#215FAD" transform="translate(210,155)"/>
<path d="M0 0 C1.958964 0.30852185 3.91715713 0.6219418 5.875 0.9375 C6.96554687 1.11152344 8.05609375 1.28554687 9.1796875 1.46484375 C12 2 12 2 14 3 C13.67 4.65 13.34 6.3 13 8 C10.6875 8.6875 10.6875 8.6875 8 9 C6.97980427 8.0206121 5.97850195 7.02104551 5 6 C2.83700789 6.22757731 2.83700789 6.22757731 1 7 C-0.0625 5.1875 -0.0625 5.1875 -1 3 C-0.67 2.01 -0.34 1.02 0 0 Z " fill="#18304F" transform="translate(287,109)"/>
<path d="M0 0 C6.8218683 -0.38614349 12.49577707 0.99134292 19 3 C18.38125 3.144375 17.7625 3.28875 17.125 3.4375 C14.96741678 3.93152225 14.96741678 3.93152225 13 5 C12.67 5.66 12.34 6.32 12 7 C12.66 7.66 13.32 8.32 14 9 C13.34 9.66 12.68 10.32 12 11 C11.38511719 10.51789063 10.77023437 10.03578125 10.13671875 9.5390625 C9.32847656 8.90742187 8.52023437 8.27578125 7.6875 7.625 C6.88699219 6.99851562 6.08648437 6.37203125 5.26171875 5.7265625 C3.55336788 4.42243282 1.78827274 3.19218183 0 2 C0 1.34 0 0.68 0 0 Z " fill="#364964" transform="translate(275,106)"/>
<path d="M0 0 C0.66 0 1.32 0 2 0 C2 1.32 2 2.64 2 4 C2.99 4 3.98 4 5 4 C5.34933594 4.92683594 5.69867188 5.85367188 6.05859375 6.80859375 C6.51363281 8.00613281 6.96867187 9.20367187 7.4375 10.4375 C7.88996094 11.63246094 8.34242188 12.82742187 8.80859375 14.05859375 C9.7144826 16.84445723 9.7144826 16.84445723 11 18 C11.08713831 19.70772358 11.10700007 21.41898649 11.09765625 23.12890625 C11.09443359 24.16337891 11.09121094 25.19785156 11.08789062 26.26367188 C11.07951172 27.35228516 11.07113281 28.44089844 11.0625 29.5625 C11.05798828 30.65498047 11.05347656 31.74746094 11.04882812 32.87304688 C11.03699826 35.58208495 11.02051543 38.29101599 11 41 C10.67 41 10.34 41 10 41 C9.96559814 40.39639648 9.93119629 39.79279297 9.89575195 39.17089844 C9.13032505 20.9681276 9.13032505 20.9681276 1.33984375 4.8828125 C0 3 0 3 0 0 Z " fill="#0B3360" transform="translate(368,210)"/>
<path d="M0 0 C2.25 0.4375 2.25 0.4375 5 2 C6.65540274 4.88061859 7.82023576 7.90022728 9 11 C9.33 11.66 9.66 12.32 10 13 C10.2737184 17.53626037 10.2317344 22.08143275 10.25 26.625 C10.270625 27.88441406 10.29125 29.14382812 10.3125 30.44140625 C10.34153539 37.35908736 10.0012813 42.7289017 7 49 C6.16169059 46.22888088 5.88980482 45.29976825 6.921875 42.4921875 C8.50035508 37.37928464 8.28887052 32.44378312 8.25 27.125 C8.25773437 26.07441406 8.26546875 25.02382812 8.2734375 23.94140625 C8.25841996 17.94189968 7.74430791 12.74514115 6 7 C5.34 7 4.68 7 4 7 C2.02 3.535 2.02 3.535 0 0 Z " fill="#2059A3" transform="translate(288,179)"/>
<path d="M0 0 C0.66 0.33 1.32 0.66 2 1 C0.89869031 6.39641746 -0.831266 9.34579026 -4.5546875 13.375 C-6.15297553 15.06897634 -6.15297553 15.06897634 -7.5625 17.625 C-9.34204631 20.56511999 -11.4486999 22.71037171 -14 25 C-14.66 25 -15.32 25 -16 25 C-15.34 23.35 -14.68 21.7 -14 20 C-13.34 20 -12.68 20 -12 20 C-11.8453125 19.1028125 -11.8453125 19.1028125 -11.6875 18.1875 C-11 16 -11 16 -9.6484375 14.65625 C-7.07006723 12.06565996 -5.3363141 8.94877594 -3.40234375 5.86328125 C-2.93957031 5.24839844 -2.47679687 4.63351563 -2 4 C-1.34 4 -0.68 4 0 4 C0 2.68 0 1.36 0 0 Z " fill="#2360AF" transform="translate(304,240)"/>
<path d="M0 0 C1.32 0 2.64 0 4 0 C4.66 0.99 5.32 1.98 6 3 C8.05003955 4.19232613 8.05003955 4.19232613 10 5 C10 5.66 10 6.32 10 7 C10.89138672 7.07927734 10.89138672 7.07927734 11.80078125 7.16015625 C15.88923931 8.72146794 16.95234757 12.94290987 18.73828125 16.69921875 C20.43510922 21.13828882 20.97907552 25.27106715 21 30 C19.65950665 27.42168938 18.65616952 25.01762719 17.6875 22.25 C14.35267842 13.44932451 9.70976939 8.54530456 2.23046875 2.78515625 C1.49441406 2.19605469 0.75835937 1.60695312 0 1 C0 0.67 0 0.34 0 0 Z " fill="#053161" transform="translate(294,162)"/>
<path d="M0 0 C0.33 0 0.66 0 1 0 C1.02187378 1.17018677 1.02187378 1.17018677 1.04418945 2.36401367 C1.11964511 5.97228698 1.21597716 9.57973112 1.3125 13.1875 C1.33505859 14.41404297 1.35761719 15.64058594 1.38085938 16.90429688 C1.6235505 25.26610942 2.80383359 32.92872794 5 41 C3.515 41.495 3.515 41.495 2 42 C0.48562529 34.07526245 -0.28078855 26.23614279 -0.6875 18.1875 C-0.73575928 17.30489502 -0.78401855 16.42229004 -0.83374023 15.51293945 C-1.07023854 10.19847758 -0.8123094 5.25863457 0 0 Z " fill="#32435C" transform="translate(120,193)"/>
<path d="M0 0 C0.33 0 0.66 0 1 0 C1.33 2.64 1.66 5.28 2 8 C2.66 8 3.32 8 4 8 C3.4520917 12.2829452 1.97567196 14.85135641 -0.5625 18.3125 C-1.20316406 19.19550781 -1.84382813 20.07851563 -2.50390625 20.98828125 C-3.24447266 21.98408203 -3.24447266 21.98408203 -4 23 C-5 21 -5 21 -4.51171875 19.00390625 C-4.23972656 18.19824219 -3.96773438 17.39257812 -3.6875 16.5625 C-1.9521925 11.10981359 -0.91169931 5.64180984 0 0 Z " fill="#073361" transform="translate(377,251)"/>
<path d="M0 0 C0.33 0 0.66 0 1 0 C2.31176076 3.03578918 3.0142304 5.67957362 3 9 C1.19107965 13.06616102 -1.09790668 16.62473929 -4 20 C-4.66 20 -5.32 20 -6 20 C-5.36757331 15.27497299 -4.08186437 11.09429803 -2.4375 6.625 C-2.20353516 5.98433594 -1.96957031 5.34367188 -1.72851562 4.68359375 C-1.15700381 3.1206839 -0.57915771 1.56009273 0 0 Z " fill="#032E5F" transform="translate(283,234)"/>
<path d="M0 0 C1.32 0.99 2.64 1.98 4 3 C4.33 2.67 4.66 2.34 5 2 C5.66 3.32 6.32 4.64 7 6 C3.02373258 7.42009551 -0.78152721 8.61650247 -5 9 C-5.66 8.34 -6.32 7.68 -7 7 C-4.66666667 4.66666667 -2.33333333 2.33333333 0 0 Z " fill="#0A2545" transform="translate(339,89)"/>
<path d="M0 0 C2 1 2 1 3.2890625 4.26171875 C7.17530229 16.59785608 7.58842342 28.14159028 7 41 C6.67 41 6.34 41 6 41 C5.92652344 39.02966797 5.92652344 39.02966797 5.8515625 37.01953125 C5.77650532 35.28383405 5.70095877 33.54815797 5.625 31.8125 C5.5940625 30.94818359 5.563125 30.08386719 5.53125 29.19335938 C5.32179288 24.63766708 4.83477462 21.20918882 3 17 C2.34192175 14.0820854 1.85982721 11.13851461 1.375 8.1875 C1.2409375 7.39923828 1.106875 6.61097656 0.96875 5.79882812 C0.6408771 3.86671994 0.31975763 1.9334678 0 0 Z " fill="#3164A1" transform="translate(399,199)"/>
<path d="M0 0 C0.95807717 3.22400573 1.13422292 6.14285676 1.125 9.5 C1.12757813 10.4384375 1.13015625 11.376875 1.1328125 12.34375 C1.01392868 14.7214263 0.67551722 16.72683096 0 19 C-0.66 19 -1.32 19 -2 19 C-4 17 -4 17 -4.1875 13.0625 C-4.16190316 10.32363845 -3.88664156 8.65992468 -3 6 C-2.34 6 -1.68 6 -1 6 C-0.67 4.02 -0.34 2.04 0 0 Z " fill="#1B61B2" transform="translate(141,180)"/>
<path d="M0 0 C1.0625 1.8125 1.0625 1.8125 2 4 C1.67 4.99 1.34 5.98 1 7 C1.66 7.33 2.32 7.66 3 8 C2.75 9.8125 2.75 9.8125 2 12 C1.38125 12.391875 0.7625 12.78375 0.125 13.1875 C-3.20237182 16.02555243 -3.85966066 19.8792283 -5 24 C-6.14184472 20.6252898 -5.84408845 18.60566936 -4.78515625 15.234375 C-4.37426758 13.90019531 -4.37426758 13.90019531 -3.95507812 12.5390625 C-3.66052734 11.61867188 -3.36597656 10.69828125 -3.0625 9.75 C-2.77181641 8.81414063 -2.48113281 7.87828125 -2.18164062 6.9140625 C-1.46343503 4.6063855 -0.73596262 2.30206318 0 0 Z " fill="#3F5570" transform="translate(196,45)"/>
<path d="M0 0 C0.66 0.33 1.32 0.66 2 1 C0.49760034 4.61941735 -0.82145293 7.7321794 -3 11 C-2.34 11.33 -1.68 11.66 -1 12 C-1.33 12.66 -1.66 13.32 -2 14 C-0.68 14.33 0.64 14.66 2 15 C2 15.66 2 16.32 2 17 C2.99 17.33 3.98 17.66 5 18 C4.34 18.33 3.68 18.66 3 19 C-3.87850467 14.81308411 -3.87850467 14.81308411 -5 11 C-5.4375 8.0625 -5.4375 8.0625 -5 5 C-2.5 2.125 -2.5 2.125 0 0 Z " fill="#384C68" transform="translate(124,311)"/>
<path d="M0 0 C6.93 0.495 6.93 0.495 14 1 C13.67 1.66 13.34 2.32 13 3 C16.24135649 4.62067825 19.78997072 4.39697553 23.37109375 4.62109375 C26 5 26 5 29 7 C18.32378656 6.86085504 9.67052256 6.04954068 0 1 C0 0.67 0 0.34 0 0 Z " fill="#032E5A" transform="translate(212,154)"/>
<path d="M0 0 C0.99 0.99 1.98 1.98 3 3 C2.01 3.495 2.01 3.495 1 4 C1.515625 4.9075 2.03125 5.815 2.5625 6.75 C4.07262544 10.16419665 4.08784335 10.68604014 3 14 C2.61328125 13.54109375 2.2265625 13.0821875 1.828125 12.609375 C-1.00195951 9.274919 -3.84361355 6.03498697 -7 3 C-6.01 2.67 -5.02 2.34 -4 2 C-3.01 2.66 -2.02 3.32 -1 4 C-0.67 2.68 -0.34 1.36 0 0 Z " fill="#233E5D" transform="translate(229,42)"/>
<path d="M0 0 C0.66 0 1.32 0 2 0 C2.33 1.65 2.66 3.3 3 5 C3.66 5 4.32 5 5 5 C5.3403125 5.86625 5.3403125 5.86625 5.6875 6.75 C6.90670677 9.1782399 6.90670677 9.1782399 9.4375 10.8125 C12.73234769 13.62517486 13.52711968 15.96895912 15 20 C14.01 20 13.02 20 12 20 C7.47546484 15.46474319 0 6.70855863 0 0 Z " fill="#435573" transform="translate(132,259)"/>
<path d="M0 0 C2.29283982 3.43925973 2.19195395 4.65632236 1.625 8.625 C1.41875 9.40875 1.2125 10.1925 1 11 C0.01 11.495 0.01 11.495 -1 12 C-1.99 11.67 -2.98 11.34 -4 11 C-4.8125 7.75 -4.8125 7.75 -5 4 C-2.5625 1.5625 -2.5625 1.5625 0 0 Z " fill="#082446" transform="translate(126,314)"/>
<path d="M0 0 C1.05615748 2.10747019 2.10698542 4.2172459 3.1484375 6.33203125 C5.11131221 10.30153902 7.08535347 14.20777294 9.375 18 C9.91125 18.99 10.4475 19.98 11 21 C10.67 21.66 10.34 22.32 10 23 C7.5 20.75 7.5 20.75 5 18 C5 16.68 5 15.36 5 14 C4.34 14 3.68 14 3 14 C2.67 11.69 2.34 9.38 2 7 C1.34 7 0.68 7 0 7 C0 4.69 0 2.38 0 0 Z " fill="#043163" transform="translate(140,236)"/>
<path d="M0 0 C0 0.99 0 1.98 0 3 C1.32 3.33 2.64 3.66 4 4 C-0.62 4 -5.24 4 -10 4 C-10 7.63 -10 11.26 -10 15 C-10.33 15 -10.66 15 -11 15 C-11.02685938 12.85423363 -11.04633088 10.70837355 -11.0625 8.5625 C-11.07410156 7.36753906 -11.08570313 6.17257812 -11.09765625 4.94140625 C-11 2 -11 2 -10 1 C-3 0 -3 0 0 0 Z " fill="#344965" transform="translate(186,426)"/>
<path d="M0 0 C2.25902406 7.05138226 -1.01411261 16.44597717 -4 23 C-4.66 23.33 -5.32 23.66 -6 24 C-6.72159424 25.64363134 -7.39351421 27.31050386 -8 29 C-8.66 29 -9.32 29 -10 29 C-8.84043496 25.09964486 -7.31952912 21.53194915 -5.5625 17.875 C-2.87061529 12.08505863 -1.33654675 6.22635195 0 0 Z " fill="#124073" transform="translate(404,242)"/>
<path d="M0 0 C0.89203125 0.00902344 1.7840625 0.01804687 2.703125 0.02734375 C3.37859375 0.03894531 4.0540625 0.05054688 4.75 0.0625 C4.75 0.3925 4.75 0.7225 4.75 1.0625 C2.77 1.0625 0.79 1.0625 -1.25 1.0625 C-1.25 1.7225 -1.25 2.3825 -1.25 3.0625 C-3.56 2.7325 -5.87 2.4025 -8.25 2.0625 C-8.25 10.3125 -8.25 18.5625 -8.25 27.0625 C-8.58 27.0625 -8.91 27.0625 -9.25 27.0625 C-9.25 18.4825 -9.25 9.9025 -9.25 1.0625 C-5.84112017 0.21028004 -3.44565369 -0.04533755 0 0 Z " fill="#8191A7" transform="translate(334.25,387.9375)"/>
<path d="M0 0 C0.66 0 1.32 0 2 0 C2 0.66 2 1.32 2 2 C3.32 1.34 4.64 0.68 6 0 C7.17245774 3.51737321 7.13266285 6.3575132 7.125 10.0625 C7.12757813 11.31160156 7.13015625 12.56070313 7.1328125 13.84765625 C7 17 7 17 6 19 C3.9375 19.625 3.9375 19.625 2 20 C2 19.34 2 18.68 2 18 C1.34 17.67 0.68 17.34 0 17 C0.99 17 1.98 17 3 17 C3.66 12.71 4.32 8.42 5 4 C3.02 3.34 1.04 2.68 -1 2 C-0.67 1.34 -0.34 0.68 0 0 Z " fill="#334763" transform="translate(220,124)"/>
<path d="M0 0 C0 0.66 0 1.32 0 2 C-0.99 2.33 -1.98 2.66 -3 3 C-3.33 3.66 -3.66 4.32 -4 5 C-4.99 5.33 -5.98 5.66 -7 6 C-7.44988281 6.50144531 -7.89976562 7.00289063 -8.36328125 7.51953125 C-10.58762022 9.53152282 -12.23142363 9.49554699 -15.1875 9.6875 C-16.08855469 9.75324219 -16.98960937 9.81898438 -17.91796875 9.88671875 C-18.94857422 9.94279297 -18.94857422 9.94279297 -20 10 C-18.44602829 6.89205659 -15.8901658 6.70605475 -12.6875 5.5625 C-8.80214553 4.17456262 -3.83670313 0 0 0 Z " fill="#103C6E" transform="translate(360,308)"/>
<path d="M0 0 C0.66 0.33 1.32 0.66 2 1 C2 1.99 2 2.98 2 4 C1.0409375 4.37125 1.0409375 4.37125 0.0625 4.75 C-2.19635114 5.78813195 -2.19635114 5.78813195 -2.5 8 C-3 10 -3 10 -4.9375 11.3125 C-5.9584375 11.6528125 -5.9584375 11.6528125 -7 12 C-7.66 11.67 -8.32 11.34 -9 11 C-9 11.66 -9 12.32 -9 13 C-9.66 12.67 -10.32 12.34 -11 12 C-9.38405168 9.95880212 -7.7143618 7.95927063 -6 6 C-5.34 6 -4.68 6 -4 6 C-3.71125 5.38125 -3.4225 4.7625 -3.125 4.125 C-2 2 -2 2 0 0 Z " fill="#556682" transform="translate(335,90)"/>
<path d="M0 0 C3.80666984 1.44390925 5.26602582 3.34952803 7 7 C6.67 7.66 6.34 8.32 6 9 C5.01 8.67 4.02 8.34 3 8 C3 10.64 3 13.28 3 16 C2.67 16 2.34 16 2 16 C1.66104344 14.27192682 1.32908475 12.54248026 1 10.8125 C0.814375 9.84957031 0.62875 8.88664062 0.4375 7.89453125 C0.03122388 5.2065794 -0.07933572 2.71228981 0 0 Z " fill="#5F7087" transform="translate(219,71)"/>
<path d="M0 0 C0.99 0.33 1.98 0.66 3 1 C3.80859375 3.07421875 3.80859375 3.07421875 4.4375 5.6875 C5.62724412 10.13005516 7.42395806 13.18035161 10 17 C10.25 19.875 10.25 19.875 10 22 C7.42936823 19.42936823 6.0471964 16.46275487 4.4375 13.25 C3.96280273 12.33734375 3.96280273 12.33734375 3.47851562 11.40625 C1.5681431 7.6098409 0.47264416 4.22142451 0 0 Z " fill="#215DA9" transform="translate(140,234)"/>
<path d="M0 0 C1.7492214 -0.08142927 3.49954542 -0.13938541 5.25 -0.1875 C6.22453125 -0.22230469 7.1990625 -0.25710938 8.203125 -0.29296875 C11.37468742 0.03924798 12.67040307 0.88672279 15 3 C12.7089095 3.19441368 10.41709663 3.38033135 8.125 3.5625 C6.21074219 3.71912109 6.21074219 3.71912109 4.2578125 3.87890625 C1 4 1 4 -1 3 C-0.67 2.01 -0.34 1.02 0 0 Z " fill="#425371" transform="translate(289,388)"/>
<path d="M0 0 C2.0625 3.734375 2.0625 3.734375 1.5 6.125 C-0.60146146 8.75182683 -2.81577329 9.09022094 -6 10 C-6.99 10.66 -7.98 11.32 -9 12 C-11.1875 11.625 -11.1875 11.625 -13 11 C-12.154375 10.67 -11.30875 10.34 -10.4375 10 C-5.97397438 7.40303964 -3.20392845 3.99069194 0 0 Z " fill="#3E536E" transform="translate(363,102)"/>
<path d="M0 0 C0.66 0.33 1.32 0.66 2 1 C0.75 2.5 0.75 2.5 -1 4 C-2.32 4 -3.64 4 -5 4 C-5 4.66 -5 5.32 -5 6 C-11.625 8.125 -11.625 8.125 -15 7 C-13.06374902 6.01836578 -11.12595461 5.03977546 -9.1875 4.0625 C-8.10855469 3.51722656 -7.02960938 2.97195312 -5.91796875 2.41015625 C-3 1 -3 1 0 0 Z " fill="#3E516C" transform="translate(339,54)"/>
<path d="M0 0 C1 2 1 2 0.25 4.4375 C-1.68441065 8.40304183 -1.68441065 8.40304183 -4 10 C-7.6875 10.6875 -7.6875 10.6875 -11 11 C-7.33333333 7.33333333 -3.66666667 3.66666667 0 0 Z " fill="#4A86D4" transform="translate(301,276)"/>
<path d="M0 0 C5.02898754 1.43685358 6.95677502 3.94236669 10 8 C11.38226016 10.76452033 11.09525387 13.0461363 11.0625 16.125 C11.05347656 17.22070312 11.04445312 18.31640625 11.03515625 19.4453125 C11.02355469 20.28835938 11.01195312 21.13140625 11 22 C10.67 22 10.34 22 10 22 C10 18.37 10 14.74 10 11 C9.34 11 8.68 11 8 11 C7 9.33333333 6 7.66666667 5 6 C3.35259924 4.3142876 1.68933922 2.6436814 0 1 C0 0.67 0 0.34 0 0 Z " fill="#465972" transform="translate(203,421)"/>
<path d="M0 0 C0.66 0.33 1.32 0.66 2 1 C1.25 3.9375 1.25 3.9375 0 7 C-2.125 7.875 -2.125 7.875 -4 8 C-3.938125 8.928125 -3.87625 9.85625 -3.8125 10.8125 C-4 14 -4 14 -5.5 15.875 C-6.2425 16.431875 -6.2425 16.431875 -7 17 C-7.89434171 14.55146689 -8.2064946 13.45555607 -7.109375 11.03515625 C-6.66078125 10.38417969 -6.2121875 9.73320312 -5.75 9.0625 C-5.28722656 8.37285156 -4.82445312 7.68320312 -4.34765625 6.97265625 C-3.90292969 6.32167969 -3.45820313 5.67070312 -3 5 C-1.99490786 3.33639922 -0.99230897 1.67125722 0 0 Z " fill="#475874" transform="translate(365,395)"/>
<path d="M0 0 C3.77826917 5.03769223 4.12307847 7.56907453 4.0625 13.6875 C4.05347656 14.86699219 4.04445313 16.04648438 4.03515625 17.26171875 C4.02355469 18.16535156 4.01195312 19.06898438 4 20 C3.67 20 3.34 20 3 20 C3 18.35 3 16.7 3 15 C2.34 15 1.68 15 1 15 C0.67 10.05 0.34 5.1 0 0 Z " fill="#4D88D6" transform="translate(373,222)"/>
<path d="M0 0 C1.61772091 4.04430227 0.61025943 7.07936836 -1 11 C-4.125 13.4375 -4.125 13.4375 -7 15 C-7.33 14.01 -7.66 13.02 -8 12 C-6.85546875 10.3515625 -6.85546875 10.3515625 -5.1875 8.625 C-2.68315633 5.88823465 -1.0931084 3.60725773 0 0 Z " fill="#314762" transform="translate(477,427)"/>
<path d="M0 0 C0.33 0 0.66 0 1 0 C1 1.65 1 3.3 1 5 C1.66 5 2.32 5 3 5 C3.19335938 5.60328125 3.38671875 6.2065625 3.5859375 6.828125 C3.84632813 7.62734375 4.10671875 8.4265625 4.375 9.25 C4.63023437 10.03890625 4.88546875 10.8278125 5.1484375 11.640625 C5.9522631 13.86773813 6.92847495 15.89266741 8 18 C8.36784131 19.3242287 8.71202981 20.65613912 9 22 C5.65368297 19.01119548 3.95525532 16.2618231 2.25 12.125 C1.82203125 11.11695312 1.3940625 10.10890625 0.953125 9.0703125 C-0.0395342 5.87264802 -0.17873401 3.32643852 0 0 Z " fill="#5E7089" transform="translate(189,89)"/>
<path d="M0 0 C4.66154042 1.49835228 5.86610751 4.88463591 8 9 C7.01 9 6.02 9 5 9 C5 8.34 5 7.68 5 7 C4.01 7 3.02 7 2 7 C2 7.66 2 8.32 2 9 C1.01 8.67 0.02 8.34 -1 8 C-0.67 5.36 -0.34 2.72 0 0 Z " fill="#2E4362" transform="translate(239,40)"/>
<path d="M0 0 C0.33 0 0.66 0 1 0 C1.03738281 0.95261719 1.07476562 1.90523438 1.11328125 2.88671875 C1.17902344 4.14097656 1.24476562 5.39523437 1.3125 6.6875 C1.37050781 7.92886719 1.42851563 9.17023438 1.48828125 10.44921875 C2.01387962 14.09630974 2.91071795 16.01914772 5 19 C5.33 19.66 5.66 20.32 6 21 C4.02 20.67 2.04 20.34 0 20 C-1.19799449 15.85340627 -0.8896192 12.00630953 -0.5625 7.75 C-0.51029297 7.00492187 -0.45808594 6.25984375 -0.40429688 5.4921875 C-0.2751783 3.66105139 -0.13834886 1.83046187 0 0 Z " fill="#485988" transform="translate(97,417)"/>
<path d="M0 0 C0.33 0.66 0.66 1.32 1 2 C1.33 1.34 1.66 0.68 2 0 C3.32 0 4.64 0 6 0 C6.061875 0.61875 6.12375 1.2375 6.1875 1.875 C6.828919 4.27761141 6.828919 4.27761141 9.5625 5.25 C10.366875 5.4975 11.17125 5.745 12 6 C7.92320841 7.6852084 5.16924407 6.16939007 1.25 4.5625 C0.07953125 4.08941406 -1.0909375 3.61632812 -2.296875 3.12890625 C-3.18890625 2.75636719 -4.0809375 2.38382812 -5 2 C-4.360625 1.855625 -3.72125 1.71125 -3.0625 1.5625 C-1.02454854 1.18992819 -1.02454854 1.18992819 0 0 Z " fill="#2B425E" transform="translate(134,329)"/>
<path d="M0 0 C0.33 0 0.66 0 1 0 C1 6.27 1 12.54 1 19 C2.98 19.66 4.96 20.32 7 21 C7.33 21.99 7.66 22.98 8 24 C4.30057315 23.50007745 2.30921003 22.9905752 0 20 C-0.34057617 17.82348633 -0.34057617 17.82348633 -0.29296875 15.33203125 C-0.28330078 14.43935547 -0.27363281 13.54667969 -0.26367188 12.62695312 C-0.23853516 11.69818359 -0.21339844 10.76941406 -0.1875 9.8125 C-0.17396484 8.87212891 -0.16042969 7.93175781 -0.14648438 6.96289062 C-0.11113096 4.64134962 -0.06178674 2.32096347 0 0 Z " fill="#253E59" transform="translate(436,432)"/>
<path d="M0 0 C1.11375 0.309375 2.2275 0.61875 3.375 0.9375 C11.09553205 2.69047104 19.11768389 2.67688456 27 3 C27 3.33 27 3.66 27 4 C23.25026094 4.11622939 19.50098536 4.1872595 15.75 4.25 C14.68652344 4.28351563 13.62304688 4.31703125 12.52734375 4.3515625 C11.50253906 4.36445313 10.47773438 4.37734375 9.421875 4.390625 C8.47924805 4.41157227 7.53662109 4.43251953 6.56542969 4.45410156 C3.28092125 3.87271731 2.10830534 2.50740841 0 0 Z " fill="#06366C" transform="translate(197,296)"/>
<path d="M0 0 C0.66 0.99 1.32 1.98 2 3 C1.34 3 0.68 3 0 3 C0.185625 3.598125 0.37125 4.19625 0.5625 4.8125 C1 7 1 7 0 10 C6.93 9.01 6.93 9.01 14 8 C14 8.66 14 9.32 14 10 C10.68929162 11.00109515 7.69915231 11.10356134 4.25 11.0625 C3.26515625 11.05347656 2.2803125 11.04445312 1.265625 11.03515625 C0.51796875 11.02355469 -0.2296875 11.01195312 -1 11 C-2.06511827 6.62780122 -1.66434402 4.20981134 0 0 Z " fill="#43576E" transform="translate(341,120)"/>
<path d="M0 0 C1.32 0.33 2.64 0.66 4 1 C3.2368139 2.60781893 2.46412942 4.21113138 1.6875 5.8125 C1.25824219 6.70582031 0.82898438 7.59914063 0.38671875 8.51953125 C-0.88221789 10.78931933 -2.06556898 12.29248171 -4 14 C-4 11.69 -4 9.38 -4 7 C-2.35 6.34 -0.7 5.68 1 5 C0.67 3.35 0.34 1.7 0 0 Z " fill="#435671" transform="translate(345,90)"/>
<path d="M0 0 C0.66 0.33 1.32 0.66 2 1 C2.8125 3.875 2.8125 3.875 3 7 C1.5625 8.875 1.5625 8.875 0 10 C0 9.34 0 8.68 0 8 C-1.32 7.67 -2.64 7.34 -4 7 C-3.67 5.35 -3.34 3.7 -3 2 C-2.67 2.66 -2.34 3.32 -2 4 C-1.01 4 -0.02 4 1 4 C0.67 2.68 0.34 1.36 0 0 Z " fill="#213656" transform="translate(405,314)"/>
<path d="M0 0 C1.65 0.33 3.3 0.66 5 1 C3.68938409 5.23429756 2.05643741 9.07407404 0 13 C-0.66 11.68 -1.32 10.36 -2 9 C-1.34 9 -0.68 9 0 9 C0.33 7.68 0.66 6.36 1 5 C0.34 5 -0.32 5 -1 5 C-1 4.34 -1 3.68 -1 3 C-0.34 3 0.32 3 1 3 C0.67 2.01 0.34 1.02 0 0 Z " fill="#344766" transform="translate(331,112)"/>
<path d="M0 0 C0.33 0.66 0.66 1.32 1 2 C-0.58162925 5.08417703 -2.23479113 7.87291625 -5 10 C-7.6875 10.6875 -7.6875 10.6875 -10 11 C-6.79239749 7.19364503 -3.59253891 3.45436433 0 0 Z " fill="#0C3764" transform="translate(380,290)"/>
<path d="M0 0 C0.66 0.33 1.32 0.66 2 1 C-2.30769231 5.92307692 -2.30769231 5.92307692 -5.8125 6.3125 C-6.8953125 6.1578125 -6.8953125 6.1578125 -8 6 C-8 6.99 -8 7.98 -8 9 C-10.31 9 -12.62 9 -15 9 C-14.2265625 8.6596875 -14.2265625 8.6596875 -13.4375 8.3125 C-11.29671119 7.15976756 -9.45893183 5.92812449 -7.5 4.5 C-2.62668312 0.9728456 -2.62668312 0.9728456 0 0 Z " fill="#073264" transform="translate(266,283)"/>
<path d="M0 0 C4.30067708 0.90014171 6.3884892 2.09828697 8.875 5.625 C9.57625 6.73875 10.2775 7.8525 11 9 C10.67 9.66 10.34 10.32 10 11 C9.01 10.67 8.02 10.34 7 10 C7 8.68 7 7.36 7 6 C6.21625 5.938125 5.4325 5.87625 4.625 5.8125 C3.75875 5.544375 2.8925 5.27625 2 5 C0.6875 2.4375 0.6875 2.4375 0 0 Z " fill="#153F73" transform="translate(374,197)"/>
<path d="M0 0 C1.32 0.66 2.64 1.32 4 2 C3.360625 2.886875 2.72125 3.77375 2.0625 4.6875 C0.19170243 7.69211428 -0.59423966 9.5510371 -1 13 C-1.66 13 -2.32 13 -3 13 C-2.45144652 8.428721 -1.58255197 4.32564205 0 0 Z " fill="#455773" transform="translate(208,11)"/>
<path d="M0 0 C4.875 0.875 4.875 0.875 6 2 C7.51165654 2.39148761 9.03469632 2.73972457 10.5625 3.0625 C11.38878906 3.23910156 12.21507812 3.41570312 13.06640625 3.59765625 C13.70449219 3.73042969 14.34257812 3.86320312 15 4 C15 4.66 15 5.32 15 6 C9.63242739 5.53727822 5.69499891 4.86280421 1 2 C0.67 1.34 0.34 0.68 0 0 Z " fill="#245AA5" transform="translate(188,291)"/>
<path d="M0 0 C0.556875 0.165 1.11375 0.33 1.6875 0.5 C4.18691249 1.04041351 6.45045662 1.07082065 9 1 C5.89576443 2.68054361 2.83501066 3.73989499 -0.5625 4.6875 C-1.51253906 4.95949219 -2.46257812 5.23148437 -3.44140625 5.51171875 C-6 6 -6 6 -9 5 C-3.375 2 -3.375 2 0 2 C0 1.34 0 0.68 0 0 Z " fill="#566787" transform="translate(358,60)"/>
<path d="M0 0 C0.74507812 0.00451172 1.49015625 0.00902344 2.2578125 0.01367188 C4.0885764 0.02540754 5.91929873 0.0433415 7.75 0.0625 C7.75 0.3925 7.75 0.7225 7.75 1.0625 C4.12 1.3925 0.49 1.7225 -3.25 2.0625 C-3.25 2.3925 -3.25 2.7225 -3.25 3.0625 C-6.88 3.0625 -10.51 3.0625 -14.25 3.0625 C-10.31886197 -0.86863803 -5.26465746 -0.06045985 0 0 Z " fill="#728CA1" transform="translate(255.25,386.9375)"/>
<path d="M0 0 C0.66 0 1.32 0 2 0 C0.3341708 6.16356805 -2.87805286 11.48259656 -6 17 C-6.33 17 -6.66 17 -7 17 C-7 15.35 -7 13.7 -7 12 C-6.01 11.67 -5.02 11.34 -4 11 C-4 9.68 -4 8.36 -4 7 C-3.34 7 -2.68 7 -2 7 C-2 6.01 -2 5.02 -2 4 C-1.34 4 -0.68 4 0 4 C0 2.68 0 1.36 0 0 Z " fill="#083161" transform="translate(323,240)"/>
<path d="M0 0 C4.93862935 7.40794403 4.21283223 16.52656399 3 25 C2.67 25 2.34 25 2 25 C1.32133855 19.65554111 0.95558056 14.53433279 1.03125 9.15234375 C0.98597405 6.03396258 0.52285476 3.07177173 0 0 Z " fill="#566980" transform="translate(422,407)"/>
<path d="M0 0 C0 0.33 0 0.66 0 1 C-3.3 1 -6.6 1 -10 1 C-10 1.66 -10 2.32 -10 3 C-14.455 4.485 -14.455 4.485 -19 6 C-18 3 -18 3 -15.125 1.3125 C-10.23221102 -0.64870143 -5.180139 -0.25291818 0 0 Z " fill="#5C6E89" transform="translate(176,388)"/>
<path d="M0 0 C2.35424675 -0.02726927 4.70816962 -0.04696719 7.0625 -0.0625 C8.37347656 -0.07410156 9.68445313 -0.08570313 11.03515625 -0.09765625 C14.8163519 -0.00452335 18.27920707 0.38551274 22 1 C18.5980513 3.09350689 15.94727588 3.17942163 12 3 C12 2.34 12 1.68 12 1 C8.04 1 4.08 1 0 1 C0 0.67 0 0.34 0 0 Z " fill="#74839E" transform="translate(450,387)"/>
<path d="M0 0 C-2.31381865 2.70813501 -4.09294125 3.54122688 -7.5625 4.25 C-8.74005859 4.50523437 -8.74005859 4.50523437 -9.94140625 4.765625 C-12 5 -12 5 -14 4 C-4.67586207 -1.55862069 -4.67586207 -1.55862069 0 0 Z " fill="#3F516E" transform="translate(140,306)"/>
<path d="M0 0 C-1 2 -1 2 -3.109375 2.81640625 C-4.41648438 3.18572266 -4.41648438 3.18572266 -5.75 3.5625 C-6.61109375 3.81128906 -7.4721875 4.06007813 -8.359375 4.31640625 C-10.89440646 4.97266439 -13.42739732 5.51416676 -16 6 C-11.97674649 1.03009861 -6.15921636 -0.45067437 0 0 Z " fill="#225DAC" transform="translate(256,289)"/>
<path d="M0 0 C0.99 0.66 1.98 1.32 3 2 C0.03 4.64 -2.94 7.28 -6 10 C-6.33 9.01 -6.66 8.02 -7 7 C-4.69 4.69 -2.38 2.38 0 0 Z " fill="#0C3060" transform="translate(289,283)"/>
<path d="M0 0 C1.36420006 4.09260018 -0.2335485 6.47012659 -1.9375 10.1875 C-2.22818359 10.84169922 -2.51886719 11.49589844 -2.81835938 12.16992188 C-3.53695343 13.78381344 -4.2673588 15.39243655 -5 17 C-5.91625283 14.47598278 -6.09936056 13.29258938 -5.22265625 10.7109375 C-4.83980469 9.94007812 -4.45695312 9.16921875 -4.0625 8.375 C-2.46533357 5.32116186 -2.46533357 5.32116186 -2 2 C-1.34 2 -0.68 2 0 2 C0 1.34 0 0.68 0 0 Z " fill="#4B617C" transform="translate(378,98)"/>
<path d="M0 0 C2 0 2 0 3.5 1.4375 C3.995 1.953125 4.49 2.46875 5 3 C5.66 3.33 6.32 3.66 7 4 C6.814375 4.61875 6.62875 5.2375 6.4375 5.875 C5.76313824 8.04160178 5.76313824 8.04160178 7 10 C6.01 11.485 6.01 11.485 5 13 C3.35 8.71 1.7 4.42 0 0 Z " fill="#435772" transform="translate(239,64)"/>
<path d="M0 0 C1.89492188 0.01353516 1.89492188 0.01353516 3.828125 0.02734375 C4.79234375 0.03894531 5.7565625 0.05054688 6.75 0.0625 C6.75 0.3925 6.75 0.7225 6.75 1.0625 C4.31401909 1.45201724 1.87745206 1.82453193 -0.5625 2.1875 C-1.25279297 2.29964844 -1.94308594 2.41179687 -2.65429688 2.52734375 C-7.91015625 3.2890625 -7.91015625 3.2890625 -11.25 1.0625 C-7.49600202 -0.1414337 -3.91782588 -0.03627617 0 0 Z " fill="#5F6F8C" transform="translate(390.25,386.9375)"/>
<path d="M0 0 C0.33 0 0.66 0 1 0 C1.39036513 1.60049704 1.76178619 3.20562371 2.125 4.8125 C2.33382813 5.70582031 2.54265625 6.59914062 2.7578125 7.51953125 C3 10 3 10 1 13 C1 12.01 1 11.02 1 10 C0.01 10 -0.98 10 -2 10 C-1.85950482 8.52031676 -1.71245174 7.04125484 -1.5625 5.5625 C-1.48128906 4.73878906 -1.40007812 3.91507813 -1.31640625 3.06640625 C-1 1 -1 1 0 0 Z " fill="#0F2C51" transform="translate(381,246)"/>
<path d="M0 0 C0.66 0.33 1.32 0.66 2 1 C1.2884375 1.6496875 1.2884375 1.6496875 0.5625 2.3125 C-1.23686957 4.02309613 -1.23686957 4.02309613 -2 7 C-2.99 7 -3.98 7 -5 7 C-5 7.66 -5 8.32 -5 9 C-6.65 9.66 -8.3 10.32 -10 11 C-8.55218207 7.55571735 -6.72305391 5.63869038 -3.875 3.25 C-3.15054688 2.63640625 -2.42609375 2.0228125 -1.6796875 1.390625 C-0.84824219 0.70226562 -0.84824219 0.70226562 0 0 Z " fill="#1B569D" transform="translate(158,158)"/>
<path d="M0 0 C0 0.66 0 1.32 0 2 C-1.32 2.33 -2.64 2.66 -4 3 C-4 3.66 -4 4.32 -4 5 C-6.64 4.67 -9.28 4.34 -12 4 C-12.33 3.01 -12.66 2.02 -13 1 C-10.02148438 1.04882812 -10.02148438 1.04882812 -7.04296875 1.09765625 C-4.54365249 0.97818607 -2.50594088 0 0 0 Z " fill="#253E60" transform="translate(119,440)"/>
<path d="M0 0 C0.66 1.32 1.32 2.64 2 4 C2.99 4 3.98 4 5 4 C5 4.66 5 5.32 5 6 C6.65 6 8.3 6 10 6 C10 6.99 10 7.98 10 9 C4.73829306 7.58832253 1.27828642 5.25149768 -3 2 C-2.01 1.34 -1.02 0.68 0 0 Z " fill="#4275BC" transform="translate(282,300)"/>
<path d="M0 0 C1.98 0.99 3.96 1.98 6 3 C6 3.66 6 4.32 6 5 C7.423125 5.433125 7.423125 5.433125 8.875 5.875 C12 7 12 7 14 9 C12.1875 9.6875 12.1875 9.6875 10 10 C8.4375 8.625 8.4375 8.625 7 7 C6.01 6.67 5.02 6.34 4 6 C4 5.34 4 4.68 4 4 C2.68 4 1.36 4 0 4 C0 2.68 0 1.36 0 0 Z " fill="#073165" transform="translate(172,282)"/>
<path d="M0 0 C0.93065133 2.60582371 1.14917407 3.64198224 0.0625 6.25 C-0.4634375 7.11625 -0.4634375 7.11625 -1 8 C-2.32 8 -3.64 8 -5 8 C-5 8.66 -5 9.32 -5 10 C-5.66 9.67 -6.32 9.34 -7 9 C-6.02180976 7.68677212 -5.0424189 6.37443848 -4.0625 5.0625 C-3.51722656 4.33160156 -2.97195313 3.60070312 -2.41015625 2.84765625 C-1 1 -1 1 0 0 Z " fill="#053265" transform="translate(303,248)"/>
<path d="M0 0 C1.125 1.75 1.125 1.75 2 4 C1.4375 6.125 1.4375 6.125 0 8 C-2.625 9.25 -2.625 9.25 -5 10 C-4.49701212 5.59885603 -2.91227269 3.28804981 0 0 Z " fill="#495C7B" transform="translate(313,71)"/>
<path d="M0 0 C0.33 0 0.66 0 1 0 C1.66 4.95 2.32 9.9 3 15 C1 14 1 14 -1 11 C-0.9765625 8.30078125 -0.9765625 8.30078125 -0.625 5.3125 C-0.51414062 4.31863281 -0.40328125 3.32476562 -0.2890625 2.30078125 C-0.19367188 1.54152344 -0.09828125 0.78226562 0 0 Z " fill="#38536C" transform="translate(375,419)"/>
<path d="M0 0 C1.32 0 2.64 0 4 0 C2.4169423 4.2742558 -0.50568404 6.26531794 -4 9 C-3.67 7.35 -3.34 5.7 -3 4 C-2.01 3.67 -1.02 3.34 0 3 C0 2.01 0 1.02 0 0 Z " fill="#063058" transform="translate(300,272)"/>
<path d="M0 0 C5.52677733 -0.19392201 9.75614911 0.2520497 15 2 C14.67 3.32 14.34 4.64 14 6 C12.96875 5.34 11.9375 4.68 10.875 4 C7.4497945 2.03380699 4.9936315 1.53562424 1 2 C0.01 2.495 0.01 2.495 -1 3 C-0.67 2.01 -0.34 1.02 0 0 Z " fill="#215DA8" transform="translate(273,173)"/>
<path d="M0 0 C0.99 0.33 1.98 0.66 3 1 C-2.14285714 6.57142857 -2.14285714 6.57142857 -6 7 C-6.33 6.01 -6.66 5.02 -7 4 C-6.34 4 -5.68 4 -5 4 C-5 3.34 -5 2.68 -5 2 C-4.360625 1.855625 -3.72125 1.71125 -3.0625 1.5625 C-1.02454854 1.18992819 -1.02454854 1.18992819 0 0 Z " fill="#415773" transform="translate(363,122)"/>
<path d="M0 0 C0.66 0.33 1.32 0.66 2 1 C-2.93654267 7.70459519 -2.93654267 7.70459519 -7.375 8.9375 C-8.24125 8.958125 -9.1075 8.97875 -10 9 C-6.85281112 5.7317654 -3.50647501 2.8689341 0 0 Z " fill="#05346A" transform="translate(278,274)"/>
<path d="M0 0 C0.33 0.99 0.66 1.98 1 3 C-0.32 3.33 -1.64 3.66 -3 4 C-3.061875 4.78375 -3.12375 5.5675 -3.1875 6.375 C-3.455625 7.24125 -3.72375 8.1075 -4 9 C-6.5625 10.3125 -6.5625 10.3125 -9 11 C-7.44095325 7.17324889 -4.96833913 4.81992217 -2 2 C-1.34 1.34 -0.68 0.68 0 0 Z " fill="#032C58" transform="translate(285,269)"/>
<path d="M0 0 C0.66 0 1.32 0 2 0 C2.66 4.29 3.32 8.58 4 13 C0 10 0 10 -0.390625 7.51953125 C-0.34421875 6.62621094 -0.2978125 5.73289063 -0.25 4.8125 C-0.21390625 3.91144531 -0.1778125 3.01039063 -0.140625 2.08203125 C-0.07101562 1.05142578 -0.07101562 1.05142578 0 0 Z " fill="#4174B8" transform="translate(364,198)"/>
<path d="M0 0 C0.66 0.99 1.32 1.98 2 3 C-1.3 3.33 -4.6 3.66 -8 4 C-8 3.01 -8 2.02 -8 1 C-5.21136993 -0.39431504 -3.07921132 -0.25660094 0 0 Z " fill="#427FC0" transform="translate(374,194)"/>
<path d="M0 0 C2.01822917 0.06510417 4.03645833 0.13020833 6.0546875 0.1953125 C5.3946875 1.5153125 4.7346875 2.8353125 4.0546875 4.1953125 C1.4146875 3.5353125 -1.2253125 2.8753125 -3.9453125 2.1953125 C-1.9453125 0.1953125 -1.9453125 0.1953125 0 0 Z " fill="#082544" transform="translate(259.9453125,442.8046875)"/>
<path d="M0 0 C0 3.58415146 -0.78891784 4.41203739 -2.9375 7.1875 C-3.48277344 7.90292969 -4.02804687 8.61835938 -4.58984375 9.35546875 C-5.05519531 9.89816406 -5.52054687 10.44085938 -6 11 C-6.33 11 -6.66 11 -7 11 C-7.25 8.75 -7.25 8.75 -7 6 C-4.8647909 3.4230235 -2.79429788 1.86286526 0 0 Z " fill="#4E657D" transform="translate(403,287)"/>
<path d="M0 0 C0.99 0.33 1.98 0.66 3 1 C3.33 2.65 3.66 4.3 4 6 C4.66 6 5.32 6 6 6 C6.33 8.31 6.66 10.62 7 13 C3.67006966 9.17058011 1.94675475 4.62477778 0 0 Z " fill="#09376E" transform="translate(274,189)"/>
<path d="M0 0 C-4.41550318 2.94366879 -7.61090125 5 -13 5 C-13 4.34 -13 3.68 -13 3 C-8.70614007 -0.4887612 -5.28129105 -0.26854022 0 0 Z " fill="#063264" transform="translate(176,150)"/>
<path d="M0 0 C0.33 0.66 0.66 1.32 1 2 C-0.04363606 3.72852223 -1.08803103 5.45660559 -2.140625 7.1796875 C-3.23821756 9.11003874 -3.23821756 9.11003874 -2.75 11.9375 C-2.5025 12.618125 -2.255 13.29875 -2 14 C-2.99 13.34 -3.98 12.68 -5 12 C-5.40843923 9.28796348 -5.13336867 6.7562858 -5 4 C-4.01 3.67 -3.02 3.34 -2 3 C-1.34 2.01 -0.68 1.02 0 0 Z " fill="#4B607B" transform="translate(329,125)"/>
<path d="M0 0 C0.99 0.33 1.98 0.66 3 1 C3 1.99 3 2.98 3 4 C3.99 3.01 4.98 2.02 6 1 C6.99 1.33 7.98 1.66 9 2 C7.71937515 3.7074998 6.38232443 5.37373596 5 7 C4.34 7 3.68 7 3 7 C0 2.61538462 0 2.61538462 0 0 Z " fill="#42566E" transform="translate(246,112)"/>
<path d="M0 0 C-0.33 0.66 -0.66 1.32 -1 2 C-2.32 1.67 -3.64 1.34 -5 1 C-5 1.66 -5 2.32 -5 3 C-11.625 4.125 -11.625 4.125 -15 3 C-9.89665983 1.094753 -5.53657294 -0.42589023 0 0 Z " fill="#657B91" transform="translate(361,48)"/>
<path d="M0 0 C0.33 0.66 0.66 1.32 1 2 C1.66 2.33 2.32 2.66 3 3 C3.66 3.66 4.32 4.32 5 5 C5.66 5.33 6.32 5.66 7 6 C6.67 7.65 6.34 9.3 6 11 C2.48389346 8.65592898 1.64205038 6.83145088 0 3 C0 2.01 0 1.02 0 0 Z " fill="#435771" transform="translate(223,437)"/>
<path d="M0 0 C0.928125 0.0825 1.85625 0.165 2.8125 0.25 C0.23465154 2.89752004 -2.10398098 5.19432065 -5.1875 7.25 C-6.1875 4.25 -6.1875 4.25 -5.125 2.0625 C-3.1875 0.25 -3.1875 0.25 0 0 Z " fill="#2C415C" transform="translate(104.1875,403.75)"/>
<path d="M0 0 C1.32 0.33 2.64 0.66 4 1 C4 1.66 4 2.32 4 3 C3.34 3 2.68 3 2 3 C1.67 4.65 1.34 6.3 1 8 C0.34 8 -0.32 8 -1 8 C-1.33 6.02 -1.66 4.04 -2 2 C-1.34 2 -0.68 2 0 2 C0 1.34 0 0.68 0 0 Z " fill="#1D3553" transform="translate(163,289)"/>
<path d="M0 0 C0.33 0 0.66 0 1 0 C0.25 6.625 0.25 6.625 -2 10 C-2.99 10 -3.98 10 -5 10 C-3.66654496 6.40992874 -2.1056769 3.20429093 0 0 Z " fill="#0F3C6C" transform="translate(393,271)"/>
<path d="M0 0 C1.0326802 2.78823655 1.04509293 3.8677274 0.0625 6.75 C-0.288125 7.4925 -0.63875 8.235 -1 9 C-1.66 9 -2.32 9 -3 9 C-3 9.99 -3 10.98 -3 12 C-3.99 12.33 -4.98 12.66 -6 13 C-5.690625 12.236875 -5.38125 11.47375 -5.0625 10.6875 C-4.32106407 8.81210323 -3.63771783 6.91315348 -3 5 C-2.34 5 -1.68 5 -1 5 C-0.67 3.35 -0.34 1.7 0 0 Z " fill="#4179BC" transform="translate(384,254)"/>
<path d="M0 0 C1.11003253 3.3300976 0.9343162 3.97843441 -0.25 7.125 C-0.62898438 8.18074219 -0.62898438 8.18074219 -1.015625 9.2578125 C-2 11 -2 11 -5 12 C-4.38331854 5.46317657 -4.38331854 5.46317657 -2.5 3.1875 C-2.005 2.795625 -1.51 2.40375 -1 2 C-0.67 1.34 -0.34 0.68 0 0 Z " fill="#082C5F" transform="translate(291,229)"/>
<path d="M0 0 C1.57554035 2.88628401 2.46276373 5.53342384 3.125 8.75 C3.29257813 9.54921875 3.46015625 10.3484375 3.6328125 11.171875 C3.81457031 12.07679688 3.81457031 12.07679688 4 13 C3.01 13.33 2.02 13.66 1 14 C0.06380187 10.84493858 -0.1057123 8.03413498 -0.0625 4.75 C-0.05347656 3.85796875 -0.04445313 2.9659375 -0.03515625 2.046875 C-0.02355469 1.37140625 -0.01195313 0.6959375 0 0 Z " fill="#425570" transform="translate(121,221)"/>
<path d="M0 0 C0.66 1.32 1.32 2.64 2 4 C1.1646875 3.7834375 1.1646875 3.7834375 0.3125 3.5625 C-2.11384195 2.97230872 -4.54906345 2.476571 -7 2 C-7 4.31 -7 6.62 -7 9 C-7.33 9 -7.66 9 -8 9 C-8 6.36 -8 3.72 -8 1 C-5.29120665 -0.35439668 -2.99066732 -0.06501451 0 0 Z " fill="#06325E" transform="translate(374,197)"/>
<path d="M0 0 C4.67692308 1.47692308 4.67692308 1.47692308 6.3125 4.125 C6.539375 4.74375 6.76625 5.3625 7 6 C4.625 6.1875 4.625 6.1875 2 6 C0 3 0 3 0 0 Z " fill="#3F5872" transform="translate(212,14)"/>
<path d="M0 0 C2 1 2 1 3.125 4.0625 C3.41375 5.031875 3.7025 6.00125 4 7 C1.64561267 8.42944945 0.51967567 9.08661261 -2.25 8.625 C-2.8275 8.41875 -3.405 8.2125 -4 8 C-3.01 8 -2.02 8 -1 8 C-0.67 5.36 -0.34 2.72 0 0 Z " fill="#364A66" transform="translate(125,448)"/>
<path d="M0 0 C-1 2 -1 2 -2.92578125 2.66796875 C-3.71339844 2.83941406 -4.50101563 3.01085937 -5.3125 3.1875 C-6.09238281 3.36667969 -6.87226563 3.54585938 -7.67578125 3.73046875 C-10.09204759 4.01067443 -11.70242952 3.74132137 -14 3 C-12.04486839 2.303447 -10.08577524 1.61800435 -8.125 0.9375 C-7.03445312 0.55464844 -5.94390625 0.17179687 -4.8203125 -0.22265625 C-2 -1 -2 -1 0 0 Z " fill="#07376A" transform="translate(251,293)"/>
<path d="M0 0 C-2.1875 2.5625 -2.1875 2.5625 -5 5 C-7.8125 4.8125 -7.8125 4.8125 -10 4 C-7.39928297 0.98864344 -3.94054294 -1.97027147 0 0 Z " fill="#215DA9" transform="translate(170,154)"/>
<path d="M0 0 C2.1875 0.3125 2.1875 0.3125 4 1 C3.25 2.9375 3.25 2.9375 2 5 C-0.125 5.75 -0.125 5.75 -2 6 C-2.33 5.01 -2.66 4.02 -3 3 C-1.75 1.4375 -1.75 1.4375 0 0 Z " fill="#0C2547" transform="translate(297,112)"/>
<path d="M0 0 C4.51617599 -0.07654536 8.59085217 -0.10228696 13 1 C13 1.33 13 1.66 13 2 C10.36 2 7.72 2 5 2 C5 2.66 5 3.32 5 4 C2.525 3.01 2.525 3.01 0 2 C0 1.34 0 0.68 0 0 Z " fill="#7E879E" transform="translate(275,106)"/>
<path d="M0 0 C1.875 0.3125 1.875 0.3125 4 1 C6 4 6 4 5.625 6.1875 C5.41875 6.785625 5.2125 7.38375 5 8 C2.5 5.6875 2.5 5.6875 0 3 C0 2.01 0 1.02 0 0 Z " fill="#445B74" transform="translate(227,48)"/>
<path d="M0 0 C2 4 2 4 1.375 6.6875 C0.694375 7.8321875 0.694375 7.8321875 0 9 C-1.32 9.33 -2.64 9.66 -4 10 C-2.68 6.7 -1.36 3.4 0 0 Z " fill="#355B70" transform="translate(125,428)"/>
<path d="M0 0 C1.22589844 0.15275391 1.22589844 0.15275391 2.4765625 0.30859375 C3.41628906 0.43427734 3.41628906 0.43427734 4.375 0.5625 C4.375 0.8925 4.375 1.2225 4.375 1.5625 C0.745 1.8925 -2.885 2.2225 -6.625 2.5625 C-6.625 1.9025 -6.625 1.2425 -6.625 0.5625 C-4.10446405 -0.69776798 -2.7707902 -0.35624445 0 0 Z " fill="#2E445F" transform="translate(355.625,339.4375)"/>
<path d="M0 0 C0.66 0.66 1.32 1.32 2 2 C0.35 3.32 -1.3 4.64 -3 6 C-4.32 5.34 -5.64 4.68 -7 4 C-4.86535088 1.54515351 -3.29279709 0.31865778 0 0 Z " fill="#2D415E" transform="translate(394,297)"/>
<path d="M0 0 C0.66 0.99 1.32 1.98 2 3 C0.35 5.97 -1.3 8.94 -3 12 C-3.66 11.01 -4.32 10.02 -5 9 C-3.625 6.5 -3.625 6.5 -2 4 C-1.34 4 -0.68 4 0 4 C0 2.68 0 1.36 0 0 Z " fill="#41576E" transform="translate(408,275)"/>
<path d="M0 0 C0.33 0.99 0.66 1.98 1 3 C0.01 4.485 0.01 4.485 -1 6 C-1.66 6 -2.32 6 -3 6 C-3.33 6.99 -3.66 7.98 -4 9 C-4.99 8.67 -5.98 8.34 -7 8 C-4.69 5.36 -2.38 2.72 0 0 Z " fill="#06366A" transform="translate(293,260)"/>
<path d="M0 0 C3.67230705 3.07999946 4.56802365 5.2482602 5 10 C4.34 10 3.68 10 3 10 C2.87625 9.360625 2.7525 8.72125 2.625 8.0625 C2.315625 7.0415625 2.315625 7.0415625 2 6 C1.34 5.67 0.68 5.34 0 5 C0 3.35 0 1.7 0 0 Z " fill="#425068" transform="translate(409,183)"/>
<path d="M0 0 C0.66 0 1.32 0 2 0 C3.125 2.3125 3.125 2.3125 4 5 C3.01 6.485 3.01 6.485 2 8 C1.01 7.67 0.02 7.34 -1 7 C-0.67 4.69 -0.34 2.38 0 0 Z " fill="#0A2442" transform="translate(315,118)"/>
<path d="M0 0 C0.33 0 0.66 0 1 0 C0.64989059 8.35010941 0.64989059 8.35010941 -2.0625 11.0625 C-2.701875 11.371875 -3.34125 11.68125 -4 12 C-2.66666667 8 -1.33333333 4 0 0 Z " fill="#516278" transform="translate(201,33)"/>
<path d="M0 0 C2.4375 0.375 2.4375 0.375 5 1 C5.33 1.66 5.66 2.32 6 3 C6.66 3.144375 7.32 3.28875 8 3.4375 C8.66 3.623125 9.32 3.80875 10 4 C10.33 4.99 10.66 5.98 11 7 C6.00724943 5.72278474 3.42388092 3.82669043 0 0 Z " fill="#4D5C75" transform="translate(87,449)"/>
<path d="M0 0 C2.29013653 3.4352048 2.17842973 4.985331 2 9 C1.67 8.34 1.34 7.68 1 7 C-1.01669827 5.86649466 -1.01669827 5.86649466 -3 5 C-2.01 3.35 -1.02 1.7 0 0 Z " fill="#2C3E59" transform="translate(420,402)"/>
<path d="M0 0 C2.31 0.33 4.62 0.66 7 1 C7.33 2.65 7.66 4.3 8 6 C7.34 6 6.68 6 6 6 C6 5.34 6 4.68 6 4 C5.38125 3.896875 4.7625 3.79375 4.125 3.6875 C2 3 2 3 0 0 Z " fill="#235EAD" transform="translate(172,281)"/>
<path d="M0 0 C0.639375 0.804375 1.27875 1.60875 1.9375 2.4375 C3.40603502 4.2750504 3.40603502 4.2750504 5 6 C5.04080783 7.99958364 5.04254356 10.00045254 5 12 C1.94063363 8.24532309 0 4.91886939 0 0 Z " fill="#42596F" transform="translate(127,247)"/>
<path d="M0 0 C0.66 0 1.32 0 2 0 C2 0.66 2 1.32 2 2 C3.32 1.34 4.64 0.68 6 0 C7.15941038 3.47823115 6.70820884 5.45895578 6 9 C5.67 9 5.34 9 5 9 C5 7.35 5 5.7 5 4 C3.02 3.34 1.04 2.68 -1 2 C-0.67 1.34 -0.34 0.68 0 0 Z " fill="#445873" transform="translate(220,124)"/>
<path d="M0 0 C2.625 1.4375 2.625 1.4375 5 3 C4.67 3.99 4.34 4.98 4 6 C2 5 0 4 -2 3 C-2 2.34 -2 1.68 -2 1 C-1.34 0.67 -0.68 0.34 0 0 Z " fill="#394F6A" transform="translate(204,113)"/>
<path d="M0 0 C0.928125 0.0825 1.85625 0.165 2.8125 0.25 C1.3275 2.23 1.3275 2.23 -0.1875 4.25 C-1.5075 3.92 -2.8275 3.59 -4.1875 3.25 C-4.1875 3.91 -4.1875 4.57 -4.1875 5.25 C-4.8475 4.92 -5.5075 4.59 -6.1875 4.25 C-4.36434338 1.00883268 -3.82500054 0.30000004 0 0 Z " fill="#364B65" transform="translate(330.1875,97.75)"/>
<path d="M0 0 C0.33 0 0.66 0 1 0 C1.05437607 1.58294782 1.09296271 3.16644256 1.125 4.75 C1.14820313 5.63171875 1.17140625 6.5134375 1.1953125 7.421875 C0.99139502 10.1135858 0.36551721 11.69904974 -1 14 C-1.625 12.1875 -1.625 12.1875 -2 10 C-1.34 9.01 -0.68 8.02 0 7 C-0.66 7 -1.32 7 -2 7 C-1.34 4.69 -0.68 2.38 0 0 Z " fill="#0C213F" transform="translate(262,84)"/>
<path d="M0 0 C3.67230705 3.07999946 4.56802365 5.2482602 5 10 C4.34 10 3.68 10 3 10 C1.11608215 6.73454239 0.50712033 3.71888239 0 0 Z " fill="#4F617C" transform="translate(140,401)"/>
<path d="M0 0 C-0.3125 1.9375 -0.3125 1.9375 -1 4 C-1.99 4.33 -2.98 4.66 -4 5 C-4.33 5.66 -4.66 6.32 -5 7 C-6.65 7 -8.3 7 -10 7 C-9.236875 6.401875 -8.47375 5.80375 -7.6875 5.1875 C-5.08664741 3.15995888 -5.08664741 3.15995888 -3.3125 1.25 C-2 0 -2 0 0 0 Z " fill="#0D3866" transform="translate(370,301)"/>
<path d="M0 0 C0.66 0 1.32 0 2 0 C0.7580393 3.43927579 -0.55740284 6.25207819 -3 9 C-3.66 9 -4.32 9 -5 9 C-4.34 7.35 -3.68 5.7 -3 4 C-2.34 4 -1.68 4 -1 4 C-0.67 2.68 -0.34 1.36 0 0 Z " fill="#2863BA" transform="translate(293,256)"/>
<path d="M0 0 C0.99 0.33 1.98 0.66 3 1 C3.3721042 2.32303717 3.70630173 3.65737935 4 5 C4.66 5.33 5.32 5.66 6 6 C5.01 6 4.02 6 3 6 C2.67 6.99 2.34 7.98 2 9 C0.9986012 5.99580359 0.48578543 3.12290635 0 0 Z " fill="#092542" transform="translate(408,188)"/>
<path d="M0 0 C1.32 0 2.64 0 4 0 C4.66 0.99 5.32 1.98 6 3 C8.05003955 4.19232613 8.05003955 4.19232613 10 5 C9.67 5.99 9.34 6.98 9 8 C7.49712782 6.85793642 5.99776716 5.71125043 4.5 4.5625 C3.6646875 3.92441406 2.829375 3.28632813 1.96875 2.62890625 C1.3190625 2.09136719 0.669375 1.55382812 0 1 C0 0.67 0 0.34 0 0 Z " fill="#07336A" transform="translate(294,162)"/>
<path d="M0 0 C1.65 0.33 3.3 0.66 5 1 C3.6875 3 3.6875 3 2 5 C1.01 5 0.02 5 -1 5 C-0.67 3.35 -0.34 1.7 0 0 Z " fill="#092543" transform="translate(164,137)"/>
<path d="M0 0 C1.175625 0.5259375 1.175625 0.5259375 2.375 1.0625 C3.674375 1.5265625 3.674375 1.5265625 5 2 C5.66 1.67 6.32 1.34 7 1 C6.67 2.65 6.34 4.3 6 6 C5.67 5.34 5.34 4.68 5 4 C4.01 4 3.02 4 2 4 C1.67 4.66 1.34 5.32 1 6 C0 3 0 3 0 0 Z " fill="#3A5069" transform="translate(308,118)"/>
<path d="M0 0 C0 2.31 0 4.62 0 7 C-0.33 7 -0.66 7 -1 7 C-1 5.02 -1 3.04 -1 1 C-1.66 1 -2.32 1 -3 1 C-3 1.66 -3 2.32 -3 3 C-5.64 2.67 -8.28 2.34 -11 2 C-11 1.67 -11 1.34 -11 1 C-7.27569643 0.30710631 -3.78916254 -0.11144596 0 0 Z " fill="#4C5F78" transform="translate(383,44)"/>
<path d="M0 0 C2.91227269 3.28804981 4.49701212 5.59885603 5 10 C0.07692308 5.69230769 0.07692308 5.69230769 -0.3125 2.1875 C-0.209375 1.465625 -0.10625 0.74375 0 0 Z " fill="#334662" transform="translate(490,399)"/>
<path d="M0 0 C0 0.99 0 1.98 0 3 C-0.66 3.66 -1.32 4.32 -2 5 C-5.0625 4.75 -5.0625 4.75 -8 4 C-8.33 3.34 -8.66 2.68 -9 2 C-7.68 2 -6.36 2 -5 2 C-5 2.66 -5 3.32 -5 4 C-4.34 4 -3.68 4 -3 4 C-2.67 3.01 -2.34 2.02 -2 1 C-1.34 0.67 -0.68 0.34 0 0 Z " fill="#58647E" transform="translate(275,403)"/>
<path d="M0 0 C0.86625 0.3403125 0.86625 0.3403125 1.75 0.6875 C2.08 2.3375 2.41 3.9875 2.75 5.6875 C-0.22 4.6975 -3.19 3.7075 -6.25 2.6875 C-2.80384615 -0.38942308 -2.80384615 -0.38942308 0 0 Z " fill="#244561" transform="translate(118.25,401.3125)"/>
<path d="M0 0 C3.99455527 0.61454696 6.74466336 2.70646737 10 5 C8.68 5.33 7.36 5.66 6 6 C6 5.34 6 4.68 6 4 C4.35 3.67 2.7 3.34 1 3 C0.67 2.01 0.34 1.02 0 0 Z " fill="#58677F" transform="translate(199,390)"/>
<path d="M0 0 C3.3 0 6.6 0 10 0 C10 0.33 10 0.66 10 1 C8.02 1 6.04 1 4 1 C4 1.66 4 2.32 4 3 C2.35 3 0.7 3 -1 3 C-0.67 2.01 -0.34 1.02 0 0 Z " fill="#54657B" transform="translate(329,388)"/>
<path d="M0 0 C0.66 0 1.32 0 2 0 C2 0.99 2 1.98 2 3 C0.46875 4.38671875 0.46875 4.38671875 -1.5 5.6875 C-2.47453125 6.34298828 -2.47453125 6.34298828 -3.46875 7.01171875 C-3.9740625 7.33785156 -4.479375 7.66398437 -5 8 C-4.67 6.35 -4.34 4.7 -4 3 C-2.68 2.67 -1.36 2.34 0 2 C0 1.34 0 0.68 0 0 Z " fill="#497EC7" transform="translate(380,287)"/>
<path d="M0 0 C0.66 0 1.32 0 2 0 C2 1.32 2 2.64 2 4 C1.01 4.33 0.02 4.66 -1 5 C-1.33 5.66 -1.66 6.32 -2 7 C-2.66 7 -3.32 7 -4 7 C-4 7.66 -4 8.32 -4 9 C-4.66 8.67 -5.32 8.34 -6 8 C-5.67 7.34 -5.34 6.68 -5 6 C-4.34 6 -3.68 6 -3 6 C-2.690625 5.38125 -2.38125 4.7625 -2.0625 4.125 C-1.375 2.75 -0.6875 1.375 0 0 Z " fill="#3D75B7" transform="translate(309,266)"/>
<path d="M0 0 C3.14958831 3.42346555 3.56179109 6.44262737 4 11 C1 9 1 9 0.48828125 6.8359375 C0.43027344 6.02382812 0.37226563 5.21171875 0.3125 4.375 C0.24675781 3.55773437 0.18101562 2.74046875 0.11328125 1.8984375 C0.07589844 1.27195313 0.03851563 0.64546875 0 0 Z " fill="#4071B1" transform="translate(373,222)"/>
<path d="M0 0 C1.98 1.65 3.96 3.3 6 5 C4.35 6.32 2.7 7.64 1 9 C1.020625 8.2575 1.04125 7.515 1.0625 6.75 C1.00671312 4.29537721 0.6930096 2.33890739 0 0 Z " fill="#394D68" transform="translate(401,174)"/>
<path d="M0 0 C0 4.45848315 -0.50395696 7.25593545 -3 11 C-3.66 11 -4.32 11 -5 11 C-4.54917531 9.53932801 -4.08906463 8.08151968 -3.625 6.625 C-3.36976563 5.81289062 -3.11453125 5.00078125 -2.8515625 4.1640625 C-2 2 -2 2 0 0 Z " fill="#1A5DA8" transform="translate(147,169)"/>
<path d="M0 0 C-2.17424117 2.50037734 -3.73045798 3.43628586 -7 4 C-7 2.68 -7 1.36 -7 0 C-4.3333581 -1.33332095 -2.83319697 -0.67102033 0 0 Z " fill="#283C5C" transform="translate(208,451)"/>
<path d="M0 0 C2.97 0 5.94 0 9 0 C9 0.66 9 1.32 9 2 C3.375 3.125 3.375 3.125 0 2 C0 1.34 0 0.68 0 0 Z " fill="#445873" transform="translate(178,442)"/>
<path d="M0 0 C0 1.32 0 2.64 0 4 C-0.33 3.01 -0.66 2.02 -1 1 C-1.99 1 -2.98 1 -4 1 C-4.33 1.99 -4.66 2.98 -5 4 C-5.99 3.67 -6.98 3.34 -8 3 C-5.53387212 -0.1151089 -3.89156016 -0.31553191 0 0 Z " fill="#546980" transform="translate(274,438)"/>
<path d="M0 0 C3.65316671 1.24976756 4.78065836 1.67098753 7 5 C6.01 5.495 6.01 5.495 5 6 C3.2925002 4.71937515 1.62626404 3.38232443 0 2 C0 1.34 0 0.68 0 0 Z " fill="#354963" transform="translate(131,393)"/>
<path d="M0 0 C0 3 0 3 -2 6 C-2.33 6.66 -2.66 7.32 -3 8 C-3.99 7.34 -4.98 6.68 -6 6 C-4.75453595 2.26360784 -3.36595047 1.81243487 0 0 Z " fill="#467ABE" transform="translate(281,293)"/>
<path d="M0 0 C0.6875 1.8125 0.6875 1.8125 1 4 C-0.4375 5.75 -0.4375 5.75 -2 7 C-2.99 6.67 -3.98 6.34 -5 6 C-3.35 4.02 -1.7 2.04 0 0 Z " fill="#114170" transform="translate(387,281)"/>
<path d="M0 0 C1.485 0.99 1.485 0.99 3 2 C3.66 1.67 4.32 1.34 5 1 C5.33 2.65 5.66 4.3 6 6 C6.66 6 7.32 6 8 6 C7.67 6.66 7.34 7.32 7 8 C5.8274869 7.04882866 4.66212985 6.08882991 3.5 5.125 C2.8503125 4.59132813 2.200625 4.05765625 1.53125 3.5078125 C1.0259375 3.01023437 0.520625 2.51265625 0 2 C0 1.34 0 0.68 0 0 Z " fill="#165096" transform="translate(156,266)"/>
<path d="M0 0 C4.24822374 0.47202486 6.19989709 2.96655518 9 6 C6.0625 5.1875 6.0625 5.1875 3 4 C2.67 3.01 2.34 2.02 2 1 C1.34 0.67 0.68 0.34 0 0 Z " fill="#2561B2" transform="translate(296,166)"/>
<path d="M0 0 C0.99 0.66 1.98 1.32 3 2 C-0.96 3.98 -0.96 3.98 -5 6 C-5.33 5.01 -5.66 4.02 -6 3 C-4.02 2.01 -2.04 1.02 0 0 Z " fill="#3F526D" transform="translate(337,70)"/>
<path d="M0 0 C1.875 0.1875 1.875 0.1875 4 1 C5.25 3.5625 5.25 3.5625 6 6 C4.02 5.34 2.04 4.68 0 4 C0 2.68 0 1.36 0 0 Z " fill="#304661" transform="translate(249,55)"/>
<path d="M0 0 C1.32 1.32 2.64 2.64 4 4 C3.01 5.485 3.01 5.485 2 7 C1.01 6.34 0.02 5.68 -1 5 C-0.67 3.35 -0.34 1.7 0 0 Z " fill="#324E69" transform="translate(378,434)"/>
<path d="M0 0 C0.33 0 0.66 0 1 0 C1 2.31 1 4.62 1 7 C0.01 7.33 -0.98 7.66 -2 8 C-2.66 7.34 -3.32 6.68 -4 6 C-2.69593116 3.98079663 -1.36176581 1.98075027 0 0 Z " fill="#394B63" transform="translate(404,430)"/>
<path d="M0 0 C0.66 0.33 1.32 0.66 2 1 C2 1.66 2 2.32 2 3 C3.32 3.33 4.64 3.66 6 4 C2.04 3.67 -1.92 3.34 -6 3 C-4 2 -2 1 0 0 Z " fill="#50647C" transform="translate(183,340)"/>
<path d="M0 0 C4.87664009 -0.34833144 7.77050005 0.58314288 12 3 C8.69564916 4.12377697 6.9493138 3.89554742 3.75 2.5625 C3.04359375 2.27503906 2.3371875 1.98757813 1.609375 1.69140625 C1.07828125 1.46324219 0.5471875 1.23507812 0 1 C0 0.67 0 0.34 0 0 Z " fill="#556684" transform="translate(134,332)"/>
<path d="M0 0 C0.33 1.32 0.66 2.64 1 4 C1.66 3.67 2.32 3.34 3 3 C2.67 3.99 2.34 4.98 2 6 C1.34 6 0.68 6 0 6 C0 6.66 0 7.32 0 8 C-0.66 8 -1.32 8 -2 8 C-1.125 1.125 -1.125 1.125 0 0 Z " fill="#346FB6" transform="translate(372,269)"/>
<path d="M0 0 C0.99 0 1.98 0 3 0 C1.47291037 3.43595166 -0.59927045 6.11912454 -3 9 C-2.30058404 5.85262818 -1.23921302 2.97411124 0 0 Z " fill="#0B3360" transform="translate(313,257)"/>
<path d="M0 0 C3.05882701 1.52941351 3.68951234 3.94219546 5 7 C4.67 7.66 4.34 8.32 4 9 C2 7.875 2 7.875 0 6 C-0.25 2.8125 -0.25 2.8125 0 0 Z " fill="#0D3971" transform="translate(146,250)"/>
<path d="M0 0 C0.66 0.99 1.32 1.98 2 3 C1.125 5.6875 1.125 5.6875 0 8 C-0.66 8 -1.32 8 -2 8 C-1.125 2.25 -1.125 2.25 0 0 Z " fill="#0B4283" transform="translate(279,246)"/>
<path d="M0 0 C1.98 0 3.96 0 6 0 C6.33 1.65 6.66 3.3 7 5 C3.535 3.02 3.535 3.02 0 1 C0 0.67 0 0.34 0 0 Z " fill="#113A6B" transform="translate(384,182)"/>
<path d="M0 0 C0.33 0 0.66 0 1 0 C0.67 2.64 0.34 5.28 0 8 C-0.66 8 -1.32 8 -2 8 C-2.33 8.66 -2.66 9.32 -3 10 C-2.49287967 6.28111761 -1.88391785 3.26545761 0 0 Z " fill="#597287" transform="translate(125,174)"/>
<path d="M0 0 C-0.59927826 3.35595828 -1.84622436 5.37801226 -4 8 C-3.67 6.02 -3.34 4.04 -3 2 C-3.66 1.67 -4.32 1.34 -5 1 C-3 0 -3 0 0 0 Z " fill="#758195" transform="translate(354,81)"/>
<path d="M0 0 C1.98 0 3.96 0 6 0 C5.67 1.32 5.34 2.64 5 4 C2.525 3.01 2.525 3.01 0 2 C0 1.34 0 0.68 0 0 Z " fill="#092443" transform="translate(458,443)"/>
<path d="M0 0 C0.6875 1.8125 0.6875 1.8125 1 4 C-0.3125 5.75 -0.3125 5.75 -2 7 C-2.66 7 -3.32 7 -4 7 C-2.92598892 4.08482708 -2.22189824 2.22189824 0 0 Z " fill="#596B80" transform="translate(229,397)"/>
<path d="M0 0 C0.66 0 1.32 0 2 0 C0.768606 3.69418201 -1.20791354 5.35109746 -4 8 C-4.66 7.67 -5.32 7.34 -6 7 C-5.04882866 5.8274869 -4.08882991 4.66212985 -3.125 3.5 C-2.59132813 2.8503125 -2.05765625 2.200625 -1.5078125 1.53125 C-0.76144531 0.77328125 -0.76144531 0.77328125 0 0 Z " fill="#677890" transform="translate(88,394)"/>
<path d="M0 0 C2 1.625 2 1.625 4 4 C4.25 7.25 4.25 7.25 4 10 C0 4 0 4 0 0 Z " fill="#3C4D66" transform="translate(272,391)"/>
<path d="M0 0 C0.66 0 1.32 0 2 0 C1.60196439 2.88575819 1.20990931 3.82189513 -1.0625 5.75 C-1.701875 6.1625 -2.34125 6.575 -3 7 C-1.125 1.125 -1.125 1.125 0 0 Z " fill="#304563" transform="translate(232,394)"/>
<path d="M0 0 C0 0.33 0 0.66 0 1 C-3.63 1.33 -7.26 1.66 -11 2 C-11 1.34 -11 0.68 -11 0 C-6.94952424 -1.35015859 -4.2079832 -0.62084998 0 0 Z " fill="#3A4C62" transform="translate(372,338)"/>
<path d="M0 0 C-3.28463659 2.18975773 -6.20696275 2.99806563 -10 4 C-10 3.34 -10 2.68 -10 2 C-6.5980513 -0.09350689 -3.94727588 -0.17942163 0 0 Z " fill="#4D83CB" transform="translate(352,312)"/>
<path d="M0 0 C1 2 1 2 0.375 4.0625 C-1 6 -1 6 -3.625 6.75 C-4.800625 6.87375 -4.800625 6.87375 -6 7 C-4.02 4.69 -2.04 2.38 0 0 Z " fill="#487DC7" transform="translate(301,276)"/>
<path d="M0 0 C0.66 0 1.32 0 2 0 C3.06775224 1.96466413 4.06553465 3.96855359 5 6 C4.67 6.66 4.34 7.32 4 8 C2 6.25 2 6.25 0 4 C0 2.68 0 1.36 0 0 Z " fill="#2663B9" transform="translate(274,192)"/>
<path d="M0 0 C-1.32338632 0.68620031 -2.65949948 1.34786461 -4 2 C-4.845625 2.4125 -5.69125 2.825 -6.5625 3.25 C-7.7690625 3.62125 -7.7690625 3.62125 -9 4 C-9.99 3.34 -10.98 2.68 -12 2 C-7.8803623 0.70756464 -4.33168317 -0.26252625 0 0 Z " fill="#364A69" transform="translate(177,134)"/>
</svg>
